<svg width="208" height="135" viewBox="0 0 208 135" fill="none" xmlns="http://www.w3.org/2000/svg">
<rect x="0.5" y="0.5" width="207" height="134" rx="4.5" fill="#FAFAFA" stroke="#222222"/>
<path d="M127.222 30.5001H112.111V24.8334C112.109 23.8323 111.711 22.8709 111.003 22.1626C110.296 21.4561 109.335 21.0576 108.334 21.0557H81.8891C80.888 21.0576 79.9266 21.4542 79.2182 22.1626C78.5099 22.8709 78.1132 23.8323 78.1113 24.8334V70.1668C78.1132 71.1679 78.5118 72.1293 79.2182 72.8358C79.9266 73.5441 80.888 73.9427 81.8891 73.9446H127.222C128.224 73.9427 129.183 73.5441 129.891 72.8358C130.6 72.1274 130.998 71.1679 131 70.1668V34.2779C130.998 33.2768 130.6 32.3153 129.891 31.607C129.185 30.9006 128.224 30.502 127.222 30.5001ZM98.8891 70.1668H91.3336V60.7223H98.8891V70.1668ZM108.334 70.1668H102.667V60.7223C102.665 59.7212 102.266 58.7598 101.558 58.0533C100.852 57.345 99.8902 56.9464 98.8891 56.9446H91.3336C90.3324 56.9464 89.371 57.345 88.6627 58.0533C87.9562 58.7598 87.5577 59.7212 87.5558 60.7223V70.1668H81.8891L81.8872 24.8334H108.334V70.1668ZM127.222 70.1668H112.111V34.2779H127.222V70.1668ZM121.556 47.5001C121.556 47.8741 121.444 48.2387 121.237 48.5503C121.031 48.8601 120.734 49.1019 120.39 49.2454C120.045 49.389 119.665 49.4249 119.299 49.3531C118.932 49.2794 118.596 49.1 118.331 48.8356C118.067 48.5711 117.888 48.2349 117.814 47.8684C117.742 47.502 117.778 47.1223 117.922 46.7767C118.065 46.4329 118.307 46.1363 118.617 45.9304C118.928 45.7227 119.293 45.6112 119.667 45.6112C120.167 45.6112 120.649 45.8096 121.002 46.1647C121.357 46.5179 121.556 46.9996 121.556 47.5001ZM117.778 39.9446C117.778 39.5706 117.889 39.206 118.097 38.8943C118.303 38.5846 118.6 38.3428 118.943 38.1992C119.289 38.0557 119.669 38.0198 120.035 38.0916C120.402 38.1652 120.738 38.3447 121.002 38.6091C121.267 38.8736 121.446 39.2098 121.52 39.5762C121.592 39.9427 121.556 40.3223 121.412 40.668C121.269 41.0118 121.027 41.3083 120.717 41.5142C120.405 41.722 120.041 41.8334 119.667 41.8334C119.166 41.8334 118.685 41.6351 118.331 41.28C117.976 40.9268 117.778 40.4451 117.778 39.9446ZM102.667 47.5001C102.667 47.8741 102.555 48.2387 102.348 48.5503C102.142 48.8601 101.845 49.1019 101.501 49.2454C101.156 49.389 100.776 49.4249 100.41 49.3531C100.043 49.2794 99.707 49.1 99.4426 48.8356C99.1781 48.5711 98.9987 48.2349 98.925 47.8684C98.8532 47.502 98.8891 47.1223 99.0327 46.7767C99.1762 46.4329 99.418 46.1363 99.7278 45.9304C100.039 45.7227 100.404 45.6112 100.778 45.6112C101.279 45.6112 101.76 45.8096 102.113 46.1647C102.469 46.5179 102.667 46.9996 102.667 47.5001ZM102.667 39.9446C102.667 40.3186 102.555 40.6831 102.348 40.9948C102.142 41.3046 101.845 41.5463 101.501 41.6899C101.156 41.8334 100.776 41.8693 100.41 41.7976C100.043 41.7239 99.707 41.5444 99.4426 41.28C99.1781 41.0156 98.9987 40.6793 98.925 40.3129C98.8532 39.9464 98.8891 39.5668 99.0327 39.2211C99.1762 38.8773 99.418 38.5808 99.7278 38.3749C100.039 38.1671 100.404 38.0557 100.778 38.0557C101.279 38.0557 101.76 38.254 102.113 38.6091C102.469 38.9623 102.667 39.444 102.667 39.9446ZM102.667 32.389C102.667 32.763 102.555 33.1276 102.348 33.4392C102.142 33.749 101.845 33.9908 101.501 34.1343C101.156 34.2779 100.776 34.3138 100.41 34.242C100.043 34.1683 99.707 33.9889 99.4426 33.7244C99.1781 33.46 98.9987 33.1238 98.925 32.7573C98.8532 32.3909 98.8891 32.0112 99.0327 31.6656C99.1762 31.3218 99.418 31.0252 99.7278 30.8193C100.039 30.6116 100.404 30.5001 100.778 30.5001C101.279 30.5001 101.76 30.6984 102.113 31.0536C102.469 31.4068 102.667 31.8884 102.667 32.389ZM91.3336 47.5001C91.3336 47.8741 91.2221 48.2387 91.0143 48.5503C90.8084 48.8601 90.5119 49.1019 90.1681 49.2454C89.8224 49.389 89.4428 49.4249 89.0763 49.3531C88.7099 49.2794 88.3737 49.1 88.1092 48.8356C87.8448 48.5711 87.6653 48.2349 87.5917 47.8684C87.5199 47.502 87.5558 47.1223 87.6993 46.7767C87.8429 46.4329 88.0847 46.1363 88.3944 45.9304C88.7061 45.7227 89.0707 45.6112 89.4447 45.6112C89.9452 45.6112 90.4269 45.8096 90.7801 46.1647C91.1352 46.5179 91.3336 46.9996 91.3336 47.5001ZM91.3336 39.9446C91.3336 40.3186 91.2221 40.6831 91.0143 40.9948C90.8084 41.3046 90.5119 41.5463 90.1681 41.6899C89.8224 41.8334 89.4428 41.8693 89.0763 41.7976C88.7099 41.7239 88.3737 41.5444 88.1092 41.28C87.8448 41.0156 87.6653 40.6793 87.5917 40.3129C87.5199 39.9464 87.5558 39.5668 87.6993 39.2211C87.8429 38.8773 88.0847 38.5808 88.3944 38.3749C88.7061 38.1671 89.0707 38.0557 89.4447 38.0557C89.9452 38.0557 90.4269 38.254 90.7801 38.6091C91.1352 38.9623 91.3336 39.444 91.3336 39.9446ZM91.3336 32.389C91.3336 32.763 91.2221 33.1276 91.0143 33.4392C90.8084 33.749 90.5119 33.9908 90.1681 34.1343C89.8224 34.2779 89.4428 34.3138 89.0763 34.242C88.7099 34.1683 88.3737 33.9889 88.1092 33.7244C87.8448 33.46 87.6653 33.1238 87.5917 32.7573C87.5199 32.3909 87.5558 32.0112 87.6993 31.6656C87.8429 31.3218 88.0847 31.0252 88.3944 30.8193C88.7061 30.6116 89.0707 30.5001 89.4447 30.5001C89.9452 30.5001 90.4269 30.6984 90.7801 31.0536C91.1352 31.4068 91.3336 31.8884 91.3336 32.389Z" fill="#435469"/>
<path d="M48.9141 97.041L44.207 110H42.2832L47.7031 95.7812H48.9434L48.9141 97.041ZM52.8594 110L48.1426 97.041L48.1133 95.7812H49.3535L54.793 110H52.8594ZM52.6152 104.736V106.279H44.627V104.736H52.6152ZM63.4648 99.4336V100.928H58.123V99.4336H63.4648ZM58.3867 99.4336V110H56.5801V99.4336H58.3867ZM65.0664 99.4336V110H63.25V99.4336H65.0664ZM74.1973 108.193V102.754C74.1973 102.337 74.1126 101.976 73.9434 101.67C73.7806 101.357 73.5332 101.117 73.2012 100.947C72.8691 100.778 72.459 100.693 71.9707 100.693C71.515 100.693 71.1146 100.771 70.7695 100.928C70.431 101.084 70.1641 101.289 69.9688 101.543C69.7799 101.797 69.6855 102.07 69.6855 102.363H67.8789C67.8789 101.986 67.9766 101.611 68.1719 101.24C68.3672 100.869 68.6471 100.534 69.0117 100.234C69.3828 99.9284 69.8255 99.6875 70.3398 99.5117C70.8607 99.3294 71.4401 99.2383 72.0781 99.2383C72.8464 99.2383 73.5234 99.3685 74.1094 99.6289C74.7018 99.8893 75.1641 100.283 75.4961 100.811C75.8346 101.331 76.0039 101.986 76.0039 102.773V107.695C76.0039 108.047 76.0332 108.421 76.0918 108.818C76.1569 109.215 76.2513 109.557 76.375 109.844V110H74.4902C74.3991 109.792 74.3275 109.515 74.2754 109.17C74.2233 108.818 74.1973 108.493 74.1973 108.193ZM74.5098 103.594L74.5293 104.863H72.7031C72.1888 104.863 71.7298 104.906 71.3262 104.99C70.9225 105.068 70.584 105.189 70.3105 105.352C70.0371 105.514 69.8288 105.719 69.6855 105.967C69.5423 106.208 69.4707 106.491 69.4707 106.816C69.4707 107.148 69.5456 107.451 69.6953 107.725C69.8451 107.998 70.0697 108.216 70.3691 108.379C70.6751 108.535 71.0495 108.613 71.4922 108.613C72.0456 108.613 72.5339 108.496 72.957 108.262C73.3802 108.027 73.7155 107.741 73.9629 107.402C74.2168 107.064 74.3535 106.735 74.373 106.416L75.1445 107.285C75.099 107.559 74.9753 107.861 74.7734 108.193C74.5716 108.525 74.3014 108.844 73.9629 109.15C73.6309 109.45 73.2337 109.701 72.7715 109.902C72.3158 110.098 71.8014 110.195 71.2285 110.195C70.5124 110.195 69.8841 110.055 69.3438 109.775C68.8099 109.495 68.3932 109.121 68.0938 108.652C67.8008 108.177 67.6543 107.646 67.6543 107.061C67.6543 106.494 67.765 105.996 67.9863 105.566C68.2077 105.13 68.5267 104.769 68.9434 104.482C69.36 104.189 69.8613 103.968 70.4473 103.818C71.0332 103.669 71.6875 103.594 72.4102 103.594H74.5098ZM80.6523 101.465V114.062H78.8359V99.4336H80.4961L80.6523 101.465ZM87.7715 104.629V104.834C87.7715 105.602 87.6803 106.315 87.498 106.973C87.3158 107.624 87.0488 108.19 86.6973 108.672C86.3522 109.154 85.9258 109.528 85.418 109.795C84.9102 110.062 84.3275 110.195 83.6699 110.195C82.9993 110.195 82.4069 110.085 81.8926 109.863C81.3783 109.642 80.9421 109.32 80.584 108.896C80.2259 108.473 79.9395 107.965 79.7246 107.373C79.5163 106.781 79.373 106.113 79.2949 105.371V104.277C79.373 103.496 79.5195 102.796 79.7344 102.178C79.9492 101.559 80.2324 101.032 80.584 100.596C80.9421 100.153 81.375 99.8177 81.8828 99.5898C82.3906 99.3555 82.9766 99.2383 83.6406 99.2383C84.3047 99.2383 84.8939 99.3685 85.4082 99.6289C85.9225 99.8828 86.3555 100.247 86.707 100.723C87.0586 101.198 87.3223 101.768 87.498 102.432C87.6803 103.089 87.7715 103.822 87.7715 104.629ZM85.9551 104.834V104.629C85.9551 104.102 85.8997 103.607 85.7891 103.145C85.6784 102.676 85.5059 102.266 85.2715 101.914C85.0436 101.556 84.7507 101.276 84.3926 101.074C84.0345 100.866 83.6081 100.762 83.1133 100.762C82.6576 100.762 82.2604 100.84 81.9219 100.996C81.5898 101.152 81.3066 101.364 81.0723 101.631C80.8379 101.891 80.6458 102.191 80.4961 102.529C80.3529 102.861 80.2454 103.206 80.1738 103.564V106.094C80.304 106.549 80.4863 106.979 80.7207 107.383C80.9551 107.78 81.2676 108.102 81.6582 108.35C82.0488 108.59 82.5404 108.711 83.1328 108.711C83.6211 108.711 84.041 108.61 84.3926 108.408C84.7507 108.2 85.0436 107.917 85.2715 107.559C85.5059 107.201 85.6784 106.79 85.7891 106.328C85.8997 105.859 85.9551 105.361 85.9551 104.834ZM93.6016 99.4336V110H91.7852V99.4336H93.6016ZM97.1465 99.4336V100.898H88.3086V99.4336H97.1465ZM104.998 108.193V102.754C104.998 102.337 104.913 101.976 104.744 101.67C104.581 101.357 104.334 101.117 104.002 100.947C103.67 100.778 103.26 100.693 102.771 100.693C102.316 100.693 101.915 100.771 101.57 100.928C101.232 101.084 100.965 101.289 100.77 101.543C100.581 101.797 100.486 102.07 100.486 102.363H98.6797C98.6797 101.986 98.7773 101.611 98.9727 101.24C99.168 100.869 99.4479 100.534 99.8125 100.234C100.184 99.9284 100.626 99.6875 101.141 99.5117C101.661 99.3294 102.241 99.2383 102.879 99.2383C103.647 99.2383 104.324 99.3685 104.91 99.6289C105.503 99.8893 105.965 100.283 106.297 100.811C106.635 101.331 106.805 101.986 106.805 102.773V107.695C106.805 108.047 106.834 108.421 106.893 108.818C106.958 109.215 107.052 109.557 107.176 109.844V110H105.291C105.2 109.792 105.128 109.515 105.076 109.17C105.024 108.818 104.998 108.493 104.998 108.193ZM105.311 103.594L105.33 104.863H103.504C102.99 104.863 102.531 104.906 102.127 104.99C101.723 105.068 101.385 105.189 101.111 105.352C100.838 105.514 100.63 105.719 100.486 105.967C100.343 106.208 100.271 106.491 100.271 106.816C100.271 107.148 100.346 107.451 100.496 107.725C100.646 107.998 100.87 108.216 101.17 108.379C101.476 108.535 101.85 108.613 102.293 108.613C102.846 108.613 103.335 108.496 103.758 108.262C104.181 108.027 104.516 107.741 104.764 107.402C105.018 107.064 105.154 106.735 105.174 106.416L105.945 107.285C105.9 107.559 105.776 107.861 105.574 108.193C105.372 108.525 105.102 108.844 104.764 109.15C104.432 109.45 104.035 109.701 103.572 109.902C103.117 110.098 102.602 110.195 102.029 110.195C101.313 110.195 100.685 110.055 100.145 109.775C99.6107 109.495 99.194 109.121 98.8945 108.652C98.6016 108.177 98.4551 107.646 98.4551 107.061C98.4551 106.494 98.5658 105.996 98.7871 105.566C99.0085 105.13 99.3275 104.769 99.7441 104.482C100.161 104.189 100.662 103.968 101.248 103.818C101.834 103.669 102.488 103.594 103.211 103.594H105.311ZM115.721 107.598L119.314 99.4336H121.053L116.346 110H115.096L110.408 99.4336H112.146L115.721 107.598ZM111.619 99.4336V110H109.812V99.4336H111.619ZM119.764 110V99.4336H121.58V110H119.764ZM128.875 110.195C128.139 110.195 127.472 110.072 126.873 109.824C126.281 109.57 125.77 109.215 125.34 108.76C124.917 108.304 124.591 107.764 124.363 107.139C124.135 106.514 124.021 105.83 124.021 105.088V104.678C124.021 103.818 124.148 103.053 124.402 102.383C124.656 101.706 125.001 101.133 125.438 100.664C125.874 100.195 126.368 99.8405 126.922 99.5996C127.475 99.3587 128.048 99.2383 128.641 99.2383C129.396 99.2383 130.047 99.3685 130.594 99.6289C131.147 99.8893 131.6 100.254 131.951 100.723C132.303 101.185 132.563 101.732 132.732 102.363C132.902 102.988 132.986 103.672 132.986 104.414V105.225H125.096V103.75H131.18V103.613C131.154 103.145 131.056 102.689 130.887 102.246C130.724 101.803 130.464 101.439 130.105 101.152C129.747 100.866 129.259 100.723 128.641 100.723C128.23 100.723 127.853 100.811 127.508 100.986C127.163 101.156 126.867 101.41 126.619 101.748C126.372 102.087 126.18 102.5 126.043 102.988C125.906 103.477 125.838 104.04 125.838 104.678V105.088C125.838 105.589 125.906 106.061 126.043 106.504C126.186 106.94 126.391 107.324 126.658 107.656C126.932 107.988 127.26 108.249 127.645 108.438C128.035 108.626 128.478 108.721 128.973 108.721C129.611 108.721 130.151 108.59 130.594 108.33C131.036 108.07 131.424 107.721 131.756 107.285L132.85 108.154C132.622 108.499 132.332 108.828 131.98 109.141C131.629 109.453 131.196 109.707 130.682 109.902C130.174 110.098 129.572 110.195 128.875 110.195ZM142.264 104.014V105.479H136.678V104.014H142.264ZM137.059 99.4336V110H135.252V99.4336H137.059ZM143.729 99.4336V110H141.912V99.4336H143.729ZM150.945 99.4336V110H149.129V99.4336H150.945ZM154.49 99.4336V100.898H145.652V99.4336H154.49ZM158.221 107.139L163.094 99.4336H164.91V110H163.094V102.295L158.221 110H156.424V99.4336H158.221V107.139Z" fill="#222222"/>
</svg>
