<svg width="208" height="135" viewBox="0 0 208 135" fill="none" xmlns="http://www.w3.org/2000/svg">
<rect x="0.5" y="0.5" width="207" height="134" rx="4.5" fill="#FAFAFA" stroke="#222222"/>
<path d="M117.925 27.6908C117.925 27.6908 117.582 27.1016 114.285 25.5C110.988 23.8984 107.287 23 103.375 23C89.5679 23 78.375 34.1929 78.375 48C78.375 61.8071 89.5679 73 103.375 73C108.455 73 113.18 71.4851 117.125 68.8824C121.07 66.2798 122.566 64.8229 122.566 64.8229" stroke="#435469" stroke-width="4" stroke-linecap="round"/>
<path d="M110.875 48C110.875 43.8579 107.517 40.5 103.375 40.5C99.2329 40.5 95.875 43.8579 95.875 48C95.875 52.1421 99.2329 55.5 103.375 55.5C107.517 55.5 110.875 52.1421 110.875 48Z" stroke="#435469" stroke-width="4"/>
<path d="M129.624 53V33V23.5991C129.624 23.2872 129.342 23.0514 129.035 23.1072L125.727 23.7085C120.022 24.7459 115.874 29.7155 115.874 35.5149V50.1396C115.874 50.3548 116.012 50.5459 116.216 50.614L123.374 53" stroke="#435469" stroke-width="4" stroke-linecap="round"/>
<path d="M123.375 52.9995L122.158 72.4683C122.14 72.7562 122.369 72.9995 122.657 72.9995H129.125C129.401 72.9995 129.625 72.7757 129.625 72.4995V59.6662V52.9995" stroke="#435469" stroke-width="4" stroke-linecap="round"/>
<path d="M71.5898 105.479H73.4648C73.3672 106.377 73.11 107.181 72.6934 107.891C72.2767 108.6 71.6875 109.163 70.9258 109.58C70.1641 109.99 69.2135 110.195 68.0742 110.195C67.2409 110.195 66.4824 110.039 65.7988 109.727C65.1217 109.414 64.5391 108.971 64.0508 108.398C63.5625 107.819 63.1849 107.126 62.918 106.318C62.6576 105.505 62.5273 104.6 62.5273 103.604V102.188C62.5273 101.191 62.6576 100.29 62.918 99.4824C63.1849 98.6686 63.5658 97.972 64.0605 97.3926C64.5618 96.8132 65.1641 96.3672 65.8672 96.0547C66.5703 95.7422 67.3613 95.5859 68.2402 95.5859C69.3145 95.5859 70.2227 95.7878 70.9648 96.1914C71.707 96.5951 72.2832 97.1549 72.6934 97.8711C73.11 98.5807 73.3672 99.4043 73.4648 100.342H71.5898C71.4987 99.6777 71.3294 99.1081 71.082 98.6328C70.8346 98.151 70.4831 97.7799 70.0273 97.5195C69.5716 97.2591 68.9759 97.1289 68.2402 97.1289C67.6087 97.1289 67.0521 97.2493 66.5703 97.4902C66.0951 97.7311 65.6947 98.0729 65.3691 98.5156C65.0501 98.9583 64.8092 99.4889 64.6465 100.107C64.4837 100.726 64.4023 101.413 64.4023 102.168V103.604C64.4023 104.3 64.474 104.954 64.6172 105.566C64.7669 106.178 64.9915 106.715 65.291 107.178C65.5905 107.64 65.9714 108.005 66.4336 108.271C66.8958 108.532 67.4427 108.662 68.0742 108.662C68.875 108.662 69.513 108.535 69.9883 108.281C70.4635 108.027 70.8216 107.663 71.0625 107.188C71.3099 106.712 71.4857 106.143 71.5898 105.479ZM82.9277 104.014V105.479H77.3418V104.014H82.9277ZM77.7227 99.4336V110H75.916V99.4336H77.7227ZM84.3926 99.4336V110H82.5762V99.4336H84.3926ZM89.2656 99.4336V110H87.4492V99.4336H89.2656ZM87.3125 96.6309C87.3125 96.3379 87.4004 96.0905 87.5762 95.8887C87.7585 95.6868 88.0254 95.5859 88.377 95.5859C88.722 95.5859 88.9857 95.6868 89.168 95.8887C89.3568 96.0905 89.4512 96.3379 89.4512 96.6309C89.4512 96.9108 89.3568 97.1517 89.168 97.3535C88.9857 97.5488 88.722 97.6465 88.377 97.6465C88.0254 97.6465 87.7585 97.5488 87.5762 97.3535C87.4004 97.1517 87.3125 96.9108 87.3125 96.6309ZM94.0703 99.4336H95.877L95.7207 103.389C95.6816 104.391 95.5677 105.257 95.3789 105.986C95.1901 106.715 94.9492 107.337 94.6562 107.852C94.3633 108.359 94.0345 108.786 93.6699 109.131C93.3118 109.476 92.9408 109.766 92.5566 110H91.6582L91.707 108.525L92.0781 108.516C92.293 108.262 92.5013 108.001 92.7031 107.734C92.9049 107.461 93.0905 107.139 93.2598 106.768C93.429 106.39 93.569 105.931 93.6797 105.391C93.7969 104.844 93.8717 104.176 93.9043 103.389L94.0703 99.4336ZM94.5195 99.4336H100.877V110H99.0703V101.104H94.5195V99.4336ZM91.248 108.516H102.234V113.115H100.428V110H93.0547V113.115H91.2383L91.248 108.516ZM110.467 108.193V102.754C110.467 102.337 110.382 101.976 110.213 101.67C110.05 101.357 109.803 101.117 109.471 100.947C109.139 100.778 108.729 100.693 108.24 100.693C107.785 100.693 107.384 100.771 107.039 100.928C106.701 101.084 106.434 101.289 106.238 101.543C106.049 101.797 105.955 102.07 105.955 102.363H104.148C104.148 101.986 104.246 101.611 104.441 101.24C104.637 100.869 104.917 100.534 105.281 100.234C105.652 99.9284 106.095 99.6875 106.609 99.5117C107.13 99.3294 107.71 99.2383 108.348 99.2383C109.116 99.2383 109.793 99.3685 110.379 99.6289C110.971 99.8893 111.434 100.283 111.766 100.811C112.104 101.331 112.273 101.986 112.273 102.773V107.695C112.273 108.047 112.303 108.421 112.361 108.818C112.426 109.215 112.521 109.557 112.645 109.844V110H110.76C110.669 109.792 110.597 109.515 110.545 109.17C110.493 108.818 110.467 108.493 110.467 108.193ZM110.779 103.594L110.799 104.863H108.973C108.458 104.863 107.999 104.906 107.596 104.99C107.192 105.068 106.854 105.189 106.58 105.352C106.307 105.514 106.098 105.719 105.955 105.967C105.812 106.208 105.74 106.491 105.74 106.816C105.74 107.148 105.815 107.451 105.965 107.725C106.115 107.998 106.339 108.216 106.639 108.379C106.945 108.535 107.319 108.613 107.762 108.613C108.315 108.613 108.803 108.496 109.227 108.262C109.65 108.027 109.985 107.741 110.232 107.402C110.486 107.064 110.623 106.735 110.643 106.416L111.414 107.285C111.368 107.559 111.245 107.861 111.043 108.193C110.841 108.525 110.571 108.844 110.232 109.15C109.9 109.45 109.503 109.701 109.041 109.902C108.585 110.098 108.071 110.195 107.498 110.195C106.782 110.195 106.154 110.055 105.613 109.775C105.079 109.495 104.663 109.121 104.363 108.652C104.07 108.177 103.924 107.646 103.924 107.061C103.924 106.494 104.035 105.996 104.256 105.566C104.477 105.13 104.796 104.769 105.213 104.482C105.63 104.189 106.131 103.968 106.717 103.818C107.303 103.669 107.957 103.594 108.68 103.594H110.779ZM122.283 104.014V105.479H116.697V104.014H122.283ZM117.078 99.4336V110H115.271V99.4336H117.078ZM123.748 99.4336V110H121.932V99.4336H123.748ZM128.621 99.4336V110H126.814V99.4336H128.621ZM135.555 99.4336L130.545 105.488H128.016L127.742 103.906H129.812L133.357 99.4336H135.555ZM133.611 110L129.725 105.215L130.887 103.906L135.906 110H133.611ZM139.432 107.139L144.305 99.4336H146.121V110H144.305V102.295L139.432 110H137.635V99.4336H139.432V107.139Z" fill="#222222"/>
</svg>
