<svg width="208" height="135" viewBox="0 0 208 135" fill="none" xmlns="http://www.w3.org/2000/svg">
<rect x="0.5" y="0.5" width="207" height="134" rx="4.5" fill="#FAFAFA" stroke="#222222"/>
<path d="M78.2812 49.2969H122.002" stroke="#435469" stroke-width="4" stroke-miterlimit="10" stroke-linecap="round" stroke-linejoin="round"/>
<path d="M122.002 42.9188V62.4937C121.925 70.2963 119.919 72.2675 112.281 72.2675H88.0028C80.2359 72.2675 78.2812 70.2142 78.2812 62.0557V42.9188C78.2812 35.5269 79.9015 33.1451 85.9967 32.7618C86.614 32.7344 87.2827 32.707 88.0028 32.707H112.281C120.048 32.707 122.002 34.7603 122.002 42.9188Z" stroke="#435469" stroke-width="4" stroke-linecap="round" stroke-linejoin="round"/>
<path d="M129.719 33.2001V52.337C129.719 59.7289 128.098 62.1107 122.003 62.494V42.9191C122.003 34.7606 120.048 32.7073 112.282 32.7073H88.0037C87.2835 32.7073 86.6148 32.7347 85.9976 32.762C86.0747 24.9595 88.0808 22.9883 95.7191 22.9883H119.997C127.764 22.9883 129.719 25.0416 129.719 33.2001Z" stroke="#435469" stroke-width="4" stroke-linecap="round" stroke-linejoin="round"/>
<path d="M86.6396 63.5332H91.0631" stroke="#435469" stroke-width="4" stroke-miterlimit="10" stroke-linecap="round" stroke-linejoin="round"/>
<path d="M96.5664 63.5332H105.413" stroke="#435469" stroke-width="4" stroke-miterlimit="10" stroke-linecap="round" stroke-linejoin="round"/>
<path d="M39.5977 102.441V103.34C39.5977 104.408 39.4642 105.365 39.1973 106.211C38.9303 107.057 38.5462 107.777 38.0449 108.369C37.5436 108.962 36.9414 109.414 36.2383 109.727C35.5417 110.039 34.7604 110.195 33.8945 110.195C33.0547 110.195 32.2832 110.039 31.5801 109.727C30.8835 109.414 30.278 108.962 29.7637 108.369C29.2559 107.777 28.862 107.057 28.582 106.211C28.3021 105.365 28.1621 104.408 28.1621 103.34V102.441C28.1621 101.374 28.2988 100.42 28.5723 99.5801C28.8522 98.7337 29.2461 98.0143 29.7539 97.4219C30.2617 96.8229 30.8639 96.3672 31.5605 96.0547C32.2637 95.7422 33.0352 95.5859 33.875 95.5859C34.7409 95.5859 35.5221 95.7422 36.2188 96.0547C36.9219 96.3672 37.5241 96.8229 38.0254 97.4219C38.5332 98.0143 38.9206 98.7337 39.1875 99.5801C39.4609 100.42 39.5977 101.374 39.5977 102.441ZM37.7324 103.34V102.422C37.7324 101.576 37.6445 100.827 37.4688 100.176C37.2995 99.5247 37.0488 98.9779 36.7168 98.5352C36.3848 98.0924 35.9779 97.7572 35.4961 97.5293C35.0208 97.3014 34.4805 97.1875 33.875 97.1875C33.2891 97.1875 32.7585 97.3014 32.2832 97.5293C31.8145 97.7572 31.4108 98.0924 31.0723 98.5352C30.7402 98.9779 30.4831 99.5247 30.3008 100.176C30.1185 100.827 30.0273 101.576 30.0273 102.422V103.34C30.0273 104.193 30.1185 104.948 30.3008 105.605C30.4831 106.257 30.7435 106.807 31.082 107.256C31.4271 107.699 31.834 108.034 32.3027 108.262C32.778 108.49 33.3086 108.604 33.8945 108.604C34.5065 108.604 35.0501 108.49 35.5254 108.262C36.0007 108.034 36.401 107.699 36.7266 107.256C37.0586 106.807 37.3092 106.257 37.4785 105.605C37.6478 104.948 37.7324 104.193 37.7324 103.34ZM49.1875 99.4336V100.928H43.8457V99.4336H49.1875ZM44.1094 99.4336V110H42.3027V99.4336H44.1094ZM50.7891 99.4336V110H48.9727V99.4336H50.7891ZM60.75 99.4336V100.928H55.6426V99.4336H60.75ZM62.3418 99.4336V110H60.5352V99.4336H62.3418ZM55.2031 99.4336H57.0195L56.7461 104.531C56.7005 105.319 56.6257 106.016 56.5215 106.621C56.4238 107.22 56.2871 107.734 56.1113 108.164C55.9421 108.594 55.7272 108.945 55.4668 109.219C55.2129 109.486 54.9069 109.684 54.5488 109.814C54.1908 109.938 53.7773 110 53.3086 110H52.7422V108.408L53.1328 108.379C53.4128 108.359 53.6504 108.294 53.8457 108.184C54.0475 108.073 54.2168 107.91 54.3535 107.695C54.4902 107.474 54.6009 107.191 54.6855 106.846C54.7767 106.501 54.8451 106.09 54.8906 105.615C54.9427 105.14 54.9818 104.587 55.0078 103.955L55.2031 99.4336ZM71.4824 108.193V102.754C71.4824 102.337 71.3978 101.976 71.2285 101.67C71.0658 101.357 70.8184 101.117 70.4863 100.947C70.1543 100.778 69.7441 100.693 69.2559 100.693C68.8001 100.693 68.3997 100.771 68.0547 100.928C67.7161 101.084 67.4492 101.289 67.2539 101.543C67.0651 101.797 66.9707 102.07 66.9707 102.363H65.1641C65.1641 101.986 65.2617 101.611 65.457 101.24C65.6523 100.869 65.9323 100.534 66.2969 100.234C66.668 99.9284 67.1107 99.6875 67.625 99.5117C68.1458 99.3294 68.7253 99.2383 69.3633 99.2383C70.1315 99.2383 70.8086 99.3685 71.3945 99.6289C71.987 99.8893 72.4492 100.283 72.7812 100.811C73.1198 101.331 73.2891 101.986 73.2891 102.773V107.695C73.2891 108.047 73.3184 108.421 73.377 108.818C73.4421 109.215 73.5365 109.557 73.6602 109.844V110H71.7754C71.6842 109.792 71.6126 109.515 71.5605 109.17C71.5085 108.818 71.4824 108.493 71.4824 108.193ZM71.7949 103.594L71.8145 104.863H69.9883C69.474 104.863 69.015 104.906 68.6113 104.99C68.2077 105.068 67.8691 105.189 67.5957 105.352C67.3223 105.514 67.1139 105.719 66.9707 105.967C66.8275 106.208 66.7559 106.491 66.7559 106.816C66.7559 107.148 66.8307 107.451 66.9805 107.725C67.1302 107.998 67.3548 108.216 67.6543 108.379C67.9603 108.535 68.3346 108.613 68.7773 108.613C69.3307 108.613 69.819 108.496 70.2422 108.262C70.6654 108.027 71.0007 107.741 71.248 107.402C71.502 107.064 71.6387 106.735 71.6582 106.416L72.4297 107.285C72.3841 107.559 72.2604 107.861 72.0586 108.193C71.8568 108.525 71.5866 108.844 71.248 109.15C70.916 109.45 70.5189 109.701 70.0566 109.902C69.6009 110.098 69.0866 110.195 68.5137 110.195C67.7975 110.195 67.1693 110.055 66.6289 109.775C66.0951 109.495 65.6784 109.121 65.3789 108.652C65.0859 108.177 64.9395 107.646 64.9395 107.061C64.9395 106.494 65.0501 105.996 65.2715 105.566C65.4928 105.13 65.8118 104.769 66.2285 104.482C66.6452 104.189 67.1465 103.968 67.7324 103.818C68.3184 103.669 68.9727 103.594 69.6953 103.594H71.7949ZM80.2812 99.4336V110H78.4648V99.4336H80.2812ZM83.8262 99.4336V100.898H74.9883V99.4336H83.8262ZM91.6777 108.193V102.754C91.6777 102.337 91.5931 101.976 91.4238 101.67C91.2611 101.357 91.0137 101.117 90.6816 100.947C90.3496 100.778 89.9395 100.693 89.4512 100.693C88.9954 100.693 88.5951 100.771 88.25 100.928C87.9115 101.084 87.6445 101.289 87.4492 101.543C87.2604 101.797 87.166 102.07 87.166 102.363H85.3594C85.3594 101.986 85.457 101.611 85.6523 101.24C85.8477 100.869 86.1276 100.534 86.4922 100.234C86.8633 99.9284 87.306 99.6875 87.8203 99.5117C88.3411 99.3294 88.9206 99.2383 89.5586 99.2383C90.3268 99.2383 91.0039 99.3685 91.5898 99.6289C92.1823 99.8893 92.6445 100.283 92.9766 100.811C93.3151 101.331 93.4844 101.986 93.4844 102.773V107.695C93.4844 108.047 93.5137 108.421 93.5723 108.818C93.6374 109.215 93.7318 109.557 93.8555 109.844V110H91.9707C91.8796 109.792 91.8079 109.515 91.7559 109.17C91.7038 108.818 91.6777 108.493 91.6777 108.193ZM91.9902 103.594L92.0098 104.863H90.1836C89.6693 104.863 89.2103 104.906 88.8066 104.99C88.403 105.068 88.0645 105.189 87.791 105.352C87.5176 105.514 87.3092 105.719 87.166 105.967C87.0228 106.208 86.9512 106.491 86.9512 106.816C86.9512 107.148 87.026 107.451 87.1758 107.725C87.3255 107.998 87.5501 108.216 87.8496 108.379C88.1556 108.535 88.5299 108.613 88.9727 108.613C89.526 108.613 90.0143 108.496 90.4375 108.262C90.8607 108.027 91.196 107.741 91.4434 107.402C91.6973 107.064 91.834 106.735 91.8535 106.416L92.625 107.285C92.5794 107.559 92.4557 107.861 92.2539 108.193C92.0521 108.525 91.7819 108.844 91.4434 109.15C91.1113 109.45 90.7142 109.701 90.252 109.902C89.7962 110.098 89.2819 110.195 88.709 110.195C87.9928 110.195 87.3646 110.055 86.8242 109.775C86.2904 109.495 85.8737 109.121 85.5742 108.652C85.2812 108.177 85.1348 107.646 85.1348 107.061C85.1348 106.494 85.2454 105.996 85.4668 105.566C85.6882 105.13 86.0072 104.769 86.4238 104.482C86.8405 104.189 87.3418 103.968 87.9277 103.818C88.5137 103.669 89.168 103.594 89.8906 103.594H91.9902ZM103.25 99.4336V110H101.443V99.4336H103.25ZM110.184 99.4336L105.174 105.488H102.645L102.371 103.906H104.441L107.986 99.4336H110.184ZM108.24 110L104.354 105.215L105.516 103.906L110.535 110H108.24ZM118.338 108.193V102.754C118.338 102.337 118.253 101.976 118.084 101.67C117.921 101.357 117.674 101.117 117.342 100.947C117.01 100.778 116.6 100.693 116.111 100.693C115.656 100.693 115.255 100.771 114.91 100.928C114.572 101.084 114.305 101.289 114.109 101.543C113.921 101.797 113.826 102.07 113.826 102.363H112.02C112.02 101.986 112.117 101.611 112.312 101.24C112.508 100.869 112.788 100.534 113.152 100.234C113.523 99.9284 113.966 99.6875 114.48 99.5117C115.001 99.3294 115.581 99.2383 116.219 99.2383C116.987 99.2383 117.664 99.3685 118.25 99.6289C118.842 99.8893 119.305 100.283 119.637 100.811C119.975 101.331 120.145 101.986 120.145 102.773V107.695C120.145 108.047 120.174 108.421 120.232 108.818C120.298 109.215 120.392 109.557 120.516 109.844V110H118.631C118.54 109.792 118.468 109.515 118.416 109.17C118.364 108.818 118.338 108.493 118.338 108.193ZM118.65 103.594L118.67 104.863H116.844C116.329 104.863 115.87 104.906 115.467 104.99C115.063 105.068 114.725 105.189 114.451 105.352C114.178 105.514 113.969 105.719 113.826 105.967C113.683 106.208 113.611 106.491 113.611 106.816C113.611 107.148 113.686 107.451 113.836 107.725C113.986 107.998 114.21 108.216 114.51 108.379C114.816 108.535 115.19 108.613 115.633 108.613C116.186 108.613 116.674 108.496 117.098 108.262C117.521 108.027 117.856 107.741 118.104 107.402C118.357 107.064 118.494 106.735 118.514 106.416L119.285 107.285C119.24 107.559 119.116 107.861 118.914 108.193C118.712 108.525 118.442 108.844 118.104 109.15C117.771 109.45 117.374 109.701 116.912 109.902C116.456 110.098 115.942 110.195 115.369 110.195C114.653 110.195 114.025 110.055 113.484 109.775C112.951 109.495 112.534 109.121 112.234 108.652C111.941 108.177 111.795 107.646 111.795 107.061C111.795 106.494 111.906 105.996 112.127 105.566C112.348 105.13 112.667 104.769 113.084 104.482C113.501 104.189 114.002 103.968 114.588 103.818C115.174 103.669 115.828 103.594 116.551 103.594H118.65ZM124.793 101.465V114.062H122.977V99.4336H124.637L124.793 101.465ZM131.912 104.629V104.834C131.912 105.602 131.821 106.315 131.639 106.973C131.456 107.624 131.189 108.19 130.838 108.672C130.493 109.154 130.066 109.528 129.559 109.795C129.051 110.062 128.468 110.195 127.811 110.195C127.14 110.195 126.548 110.085 126.033 109.863C125.519 109.642 125.083 109.32 124.725 108.896C124.367 108.473 124.08 107.965 123.865 107.373C123.657 106.781 123.514 106.113 123.436 105.371V104.277C123.514 103.496 123.66 102.796 123.875 102.178C124.09 101.559 124.373 101.032 124.725 100.596C125.083 100.153 125.516 99.8177 126.023 99.5898C126.531 99.3555 127.117 99.2383 127.781 99.2383C128.445 99.2383 129.035 99.3685 129.549 99.6289C130.063 99.8828 130.496 100.247 130.848 100.723C131.199 101.198 131.463 101.768 131.639 102.432C131.821 103.089 131.912 103.822 131.912 104.629ZM130.096 104.834V104.629C130.096 104.102 130.04 103.607 129.93 103.145C129.819 102.676 129.646 102.266 129.412 101.914C129.184 101.556 128.891 101.276 128.533 101.074C128.175 100.866 127.749 100.762 127.254 100.762C126.798 100.762 126.401 100.84 126.062 100.996C125.73 101.152 125.447 101.364 125.213 101.631C124.979 101.891 124.786 102.191 124.637 102.529C124.493 102.861 124.386 103.206 124.314 103.564V106.094C124.445 106.549 124.627 106.979 124.861 107.383C125.096 107.78 125.408 108.102 125.799 108.35C126.189 108.59 126.681 108.711 127.273 108.711C127.762 108.711 128.182 108.61 128.533 108.408C128.891 108.2 129.184 107.917 129.412 107.559C129.646 107.201 129.819 106.79 129.93 106.328C130.04 105.859 130.096 105.361 130.096 104.834ZM137.742 99.4336V110H135.926V99.4336H137.742ZM141.287 99.4336V100.898H132.449V99.4336H141.287ZM145.027 99.4336V110H143.221V99.4336H145.027ZM151.961 99.4336L146.951 105.488H144.422L144.148 103.906H146.219L149.764 99.4336H151.961ZM150.018 110L146.131 105.215L147.293 103.906L152.312 110H150.018ZM153.191 104.834V104.609C153.191 103.848 153.302 103.141 153.523 102.49C153.745 101.833 154.064 101.263 154.48 100.781C154.897 100.293 155.402 99.9154 155.994 99.6484C156.587 99.375 157.251 99.2383 157.986 99.2383C158.729 99.2383 159.396 99.375 159.988 99.6484C160.587 99.9154 161.095 100.293 161.512 100.781C161.935 101.263 162.257 101.833 162.479 102.49C162.7 103.141 162.811 103.848 162.811 104.609V104.834C162.811 105.596 162.7 106.302 162.479 106.953C162.257 107.604 161.935 108.174 161.512 108.662C161.095 109.144 160.59 109.521 159.998 109.795C159.412 110.062 158.748 110.195 158.006 110.195C157.264 110.195 156.596 110.062 156.004 109.795C155.411 109.521 154.904 109.144 154.48 108.662C154.064 108.174 153.745 107.604 153.523 106.953C153.302 106.302 153.191 105.596 153.191 104.834ZM154.998 104.609V104.834C154.998 105.361 155.06 105.859 155.184 106.328C155.307 106.79 155.493 107.201 155.74 107.559C155.994 107.917 156.31 108.2 156.688 108.408C157.065 108.61 157.505 108.711 158.006 108.711C158.501 108.711 158.934 108.61 159.305 108.408C159.682 108.2 159.995 107.917 160.242 107.559C160.49 107.201 160.675 106.79 160.799 106.328C160.929 105.859 160.994 105.361 160.994 104.834V104.609C160.994 104.089 160.929 103.597 160.799 103.135C160.675 102.666 160.486 102.253 160.232 101.895C159.985 101.53 159.673 101.243 159.295 101.035C158.924 100.827 158.488 100.723 157.986 100.723C157.492 100.723 157.055 100.827 156.678 101.035C156.307 101.243 155.994 101.53 155.74 101.895C155.493 102.253 155.307 102.666 155.184 103.135C155.06 103.597 154.998 104.089 154.998 104.609ZM171.092 103.916V105.391H165.477V103.916H171.092ZM167.049 99.4336V110H165.242V99.4336H167.049ZM169.549 104.834V104.609C169.549 103.848 169.66 103.141 169.881 102.49C170.102 101.833 170.421 101.263 170.838 100.781C171.261 100.293 171.766 99.9154 172.352 99.6484C172.944 99.375 173.608 99.2383 174.344 99.2383C175.092 99.2383 175.763 99.375 176.355 99.6484C176.948 99.9154 177.452 100.293 177.869 100.781C178.292 101.263 178.615 101.833 178.836 102.49C179.057 103.141 179.168 103.848 179.168 104.609V104.834C179.168 105.596 179.057 106.302 178.836 106.953C178.615 107.604 178.296 108.174 177.879 108.662C177.462 109.144 176.958 109.521 176.365 109.795C175.773 110.062 175.105 110.195 174.363 110.195C173.621 110.195 172.954 110.062 172.361 109.795C171.769 109.521 171.261 109.144 170.838 108.662C170.421 108.174 170.102 107.604 169.881 106.953C169.66 106.302 169.549 105.596 169.549 104.834ZM171.365 104.609V104.834C171.365 105.361 171.427 105.859 171.551 106.328C171.674 106.79 171.86 107.201 172.107 107.559C172.361 107.917 172.674 108.2 173.045 108.408C173.423 108.61 173.862 108.711 174.363 108.711C174.865 108.711 175.301 108.61 175.672 108.408C176.049 108.2 176.362 107.917 176.609 107.559C176.857 107.201 177.042 106.79 177.166 106.328C177.296 105.859 177.361 105.361 177.361 104.834V104.609C177.361 104.089 177.296 103.597 177.166 103.135C177.042 102.666 176.854 102.253 176.6 101.895C176.352 101.53 176.04 101.243 175.662 101.035C175.285 100.827 174.845 100.723 174.344 100.723C173.849 100.723 173.416 100.827 173.045 101.035C172.674 101.243 172.361 101.53 172.107 101.895C171.86 102.253 171.674 102.666 171.551 103.135C171.427 103.597 171.365 104.089 171.365 104.609Z" fill="#222222"/>
</svg>
