<svg width="208" height="135" viewBox="0 0 208 135" fill="none" xmlns="http://www.w3.org/2000/svg">
<rect x="0.5" y="0.5" width="207" height="134" rx="4.5" fill="#FAFAFA" stroke="#222222"/>
<path d="M128.7 21C129.66 21 130.583 21.3596 131.286 22.0089C131.987 22.66 132.418 23.5497 132.49 24.5018L132.5 24.7857V28.5714C132.5 29.5273 132.139 30.4473 131.487 31.1476C130.834 31.848 129.941 32.2757 128.985 32.3477L128.7 32.3571V49.3929V53.1786V70.2143C128.7 71.1702 128.339 72.0901 127.687 72.7905C127.034 73.4889 126.141 73.9186 125.185 73.9905L124.9 74H83.1C82.1405 74 81.2171 73.6404 80.5141 72.9892C79.8111 72.34 79.3817 71.4503 79.3095 70.4982L79.3 70.2143V53.1786V49.3929V32.3571L79.015 32.3477C78.1106 32.2795 77.2594 31.8915 76.6172 31.2536C75.975 30.6157 75.5817 29.7696 75.5114 28.8686L75.5 28.5714V24.7857C75.5 23.8298 75.861 22.9099 76.5127 22.2095C77.1663 21.5092 78.0593 21.0814 79.015 21.0095L79.3 21H128.7ZM124.9 53.1786H83.1V70.2143H86.9V64.5357C86.9 62.5596 87.6752 60.6629 89.0584 59.249C90.4435 57.835 92.3283 57.0154 94.31 56.9662C96.2917 56.917 98.2145 57.6419 99.668 58.984C101.122 60.3279 101.992 62.1848 102.09 64.1571L102.1 64.5357V70.2143H105.9V64.5357C105.9 62.5596 106.675 60.6629 108.058 59.249C109.444 57.835 111.328 57.0154 113.31 56.9662C115.292 56.917 117.215 57.6419 118.668 58.984C120.121 60.3279 120.992 62.1848 121.09 64.1571L121.1 64.5357V70.2143H124.9V53.1786ZM94.5 60.75C93.5405 60.75 92.6171 61.1096 91.9141 61.7589C91.2111 62.41 90.7817 63.2997 90.7095 64.2518L90.7 64.5357V70.2143H98.3V64.5357C98.3 63.5325 97.8991 62.569 97.1866 61.8592C96.4741 61.1494 95.507 60.75 94.5 60.75ZM113.5 60.75C112.541 60.75 111.617 61.1096 110.914 61.7589C110.213 62.41 109.782 63.2997 109.71 64.2518L109.7 64.5357V70.2143H117.3V64.5357C117.3 63.5325 116.899 62.569 116.187 61.8592C115.474 61.1494 114.507 60.75 113.5 60.75ZM124.9 32.3571H83.1V49.3929H86.9V43.7143C86.9 41.7381 87.6752 39.8415 89.0584 38.4275C90.4435 37.0136 92.3283 36.194 94.31 36.1447C96.2917 36.0955 98.2145 36.8205 99.668 38.1625C101.122 39.5065 101.992 41.3634 102.09 43.3357L102.1 43.7143V49.3929H105.9V43.7143C105.9 41.7381 106.675 39.8415 108.058 38.4275C109.444 37.0136 111.328 36.194 113.31 36.1447C115.292 36.0955 117.215 36.8205 118.668 38.1625C120.121 39.5065 120.992 41.3634 121.09 43.3357L121.1 43.7143V49.3929H124.9V32.3571ZM94.5 39.9286C93.5405 39.9286 92.6171 40.2882 91.9141 40.9375C91.2111 41.5886 90.7817 42.4783 90.7095 43.4304L90.7 43.7143V49.3929H98.3V43.7143C98.3 42.7111 97.8991 41.7476 97.1866 41.0378C96.4741 40.328 95.507 39.9286 94.5 39.9286ZM113.5 39.9286C112.541 39.9286 111.617 40.2882 110.914 40.9375C110.213 41.5886 109.782 42.4783 109.71 43.4304L109.7 43.7143V49.3929H117.3V43.7143C117.3 42.7111 116.899 41.7476 116.187 41.0378C115.474 40.328 114.507 39.9286 113.5 39.9286ZM128.7 24.7857H79.3V28.5714H128.7V24.7857Z" fill="#435469"/>
<path d="M73.8711 95.7812L77.2891 101.23L80.707 95.7812H82.9043L78.4121 102.822L83.0117 110H80.7949L77.2891 104.443L73.7832 110H71.5664L76.166 102.822L71.6738 95.7812H73.8711ZM84.2227 104.834V104.609C84.2227 103.848 84.3333 103.141 84.5547 102.49C84.776 101.833 85.0951 101.263 85.5117 100.781C85.9284 100.293 86.4329 99.9154 87.0254 99.6484C87.6178 99.375 88.2819 99.2383 89.0176 99.2383C89.7598 99.2383 90.4271 99.375 91.0195 99.6484C91.6185 99.9154 92.1263 100.293 92.543 100.781C92.9661 101.263 93.2884 101.833 93.5098 102.49C93.7311 103.141 93.8418 103.848 93.8418 104.609V104.834C93.8418 105.596 93.7311 106.302 93.5098 106.953C93.2884 107.604 92.9661 108.174 92.543 108.662C92.1263 109.144 91.6217 109.521 91.0293 109.795C90.4434 110.062 89.7793 110.195 89.0371 110.195C88.2949 110.195 87.6276 110.062 87.0352 109.795C86.4427 109.521 85.9349 109.144 85.5117 108.662C85.0951 108.174 84.776 107.604 84.5547 106.953C84.3333 106.302 84.2227 105.596 84.2227 104.834ZM86.0293 104.609V104.834C86.0293 105.361 86.0911 105.859 86.2148 106.328C86.3385 106.79 86.5241 107.201 86.7715 107.559C87.0254 107.917 87.3411 108.2 87.7188 108.408C88.0964 108.61 88.5358 108.711 89.0371 108.711C89.5319 108.711 89.9648 108.61 90.3359 108.408C90.7135 108.2 91.026 107.917 91.2734 107.559C91.5208 107.201 91.7064 106.79 91.8301 106.328C91.9603 105.859 92.0254 105.361 92.0254 104.834V104.609C92.0254 104.089 91.9603 103.597 91.8301 103.135C91.7064 102.666 91.5176 102.253 91.2637 101.895C91.0163 101.53 90.7038 101.243 90.3262 101.035C89.9551 100.827 89.5189 100.723 89.0176 100.723C88.5228 100.723 88.0866 100.827 87.709 101.035C87.3379 101.243 87.0254 101.53 86.7715 101.895C86.5241 102.253 86.3385 102.666 86.2148 103.135C86.0911 103.597 86.0293 104.089 86.0293 104.609ZM100.336 108.711C100.766 108.711 101.163 108.623 101.527 108.447C101.892 108.271 102.191 108.031 102.426 107.725C102.66 107.412 102.794 107.057 102.826 106.66H104.545C104.512 107.285 104.301 107.868 103.91 108.408C103.526 108.942 103.021 109.375 102.396 109.707C101.771 110.033 101.085 110.195 100.336 110.195C99.5417 110.195 98.8483 110.055 98.2559 109.775C97.6699 109.495 97.1816 109.111 96.791 108.623C96.4069 108.135 96.1172 107.575 95.9219 106.943C95.7331 106.305 95.6387 105.632 95.6387 104.922V104.512C95.6387 103.802 95.7331 103.132 95.9219 102.5C96.1172 101.862 96.4069 101.299 96.791 100.811C97.1816 100.322 97.6699 99.9382 98.2559 99.6582C98.8483 99.3783 99.5417 99.2383 100.336 99.2383C101.163 99.2383 101.885 99.4076 102.504 99.7461C103.122 100.078 103.607 100.534 103.959 101.113C104.317 101.686 104.512 102.337 104.545 103.066H102.826C102.794 102.63 102.67 102.236 102.455 101.885C102.247 101.533 101.96 101.253 101.596 101.045C101.238 100.83 100.818 100.723 100.336 100.723C99.7826 100.723 99.3171 100.833 98.9395 101.055C98.5684 101.27 98.2721 101.562 98.0508 101.934C97.8359 102.298 97.6797 102.705 97.582 103.154C97.4909 103.597 97.4453 104.049 97.4453 104.512V104.922C97.4453 105.384 97.4909 105.84 97.582 106.289C97.6732 106.738 97.8262 107.145 98.041 107.51C98.2624 107.874 98.5586 108.167 98.9297 108.389C99.3073 108.604 99.776 108.711 100.336 108.711ZM110.883 99.4336V110H109.066V99.4336H110.883ZM114.428 99.4336V100.898H105.59V99.4336H114.428ZM119.809 110.195C119.073 110.195 118.406 110.072 117.807 109.824C117.214 109.57 116.703 109.215 116.273 108.76C115.85 108.304 115.525 107.764 115.297 107.139C115.069 106.514 114.955 105.83 114.955 105.088V104.678C114.955 103.818 115.082 103.053 115.336 102.383C115.59 101.706 115.935 101.133 116.371 100.664C116.807 100.195 117.302 99.8405 117.855 99.5996C118.409 99.3587 118.982 99.2383 119.574 99.2383C120.329 99.2383 120.98 99.3685 121.527 99.6289C122.081 99.8893 122.533 100.254 122.885 100.723C123.236 101.185 123.497 101.732 123.666 102.363C123.835 102.988 123.92 103.672 123.92 104.414V105.225H116.029V103.75H122.113V103.613C122.087 103.145 121.99 102.689 121.82 102.246C121.658 101.803 121.397 101.439 121.039 101.152C120.681 100.866 120.193 100.723 119.574 100.723C119.164 100.723 118.786 100.811 118.441 100.986C118.096 101.156 117.8 101.41 117.553 101.748C117.305 102.087 117.113 102.5 116.977 102.988C116.84 103.477 116.771 104.04 116.771 104.678V105.088C116.771 105.589 116.84 106.061 116.977 106.504C117.12 106.94 117.325 107.324 117.592 107.656C117.865 107.988 118.194 108.249 118.578 108.438C118.969 108.626 119.411 108.721 119.906 108.721C120.544 108.721 121.085 108.59 121.527 108.33C121.97 108.07 122.357 107.721 122.689 107.285L123.783 108.154C123.555 108.499 123.266 108.828 122.914 109.141C122.562 109.453 122.13 109.707 121.615 109.902C121.107 110.098 120.505 110.195 119.809 110.195ZM133.09 99.4336V100.928H127.982V99.4336H133.09ZM134.682 99.4336V110H132.875V99.4336H134.682ZM127.543 99.4336H129.359L129.086 104.531C129.04 105.319 128.965 106.016 128.861 106.621C128.764 107.22 128.627 107.734 128.451 108.164C128.282 108.594 128.067 108.945 127.807 109.219C127.553 109.486 127.247 109.684 126.889 109.814C126.531 109.938 126.117 110 125.648 110H125.082V108.408L125.473 108.379C125.753 108.359 125.99 108.294 126.186 108.184C126.387 108.073 126.557 107.91 126.693 107.695C126.83 107.474 126.941 107.191 127.025 106.846C127.117 106.501 127.185 106.09 127.23 105.615C127.283 105.14 127.322 104.587 127.348 103.955L127.543 99.4336Z" fill="#222222"/>
</svg>
