<svg width="208" height="135" viewBox="0 0 208 135" fill="none" xmlns="http://www.w3.org/2000/svg">
<rect x="0.5" y="0.5" width="207" height="134" rx="4.5" fill="#FAFAFA" stroke="#222222"/>
<path d="M83.3488 53.2747L81.682 52.8308L80.9981 54.4143L78.3723 60.4941C78.156 60.9948 78.0444 61.5346 78.0444 62.08V65.7333C78.0444 67.9424 79.8353 69.7333 82.0444 69.7333H107.989C110.198 69.7333 111.989 67.9424 111.989 65.7333V57.5999H115.978C123.722 57.5999 129.956 51.2478 129.956 43.4666V36.3666C129.956 34.1575 128.165 32.3666 125.956 32.3666L117.056 32.3666L112.549 25.5179C111.624 24.1126 110.054 23.2666 108.372 23.2666H93.7568C87.3245 23.2666 81.7445 27.6991 80.1949 33.978L78.279 41.7411C77.0592 46.6838 80.7454 51.5333 85.8574 51.5333C88.7681 51.5333 91.3606 49.9121 92.7032 47.4445L94.695 47.949C93.0881 51.3589 89.6718 53.5999 85.8574 53.5999C84.9813 53.5999 84.1419 53.4859 83.3488 53.2747ZM107.989 37.3999C107.989 37.995 107.519 38.4333 106.994 38.4333C106.469 38.4333 106 37.995 106 37.3999C106 36.8048 106.469 36.3666 106.994 36.3666C107.519 36.3666 107.989 36.8048 107.989 37.3999Z" stroke="#435469" stroke-width="4"/>
<path d="M60.377 104.424H56.5781V102.891H60.377C61.1126 102.891 61.7083 102.773 62.1641 102.539C62.6198 102.305 62.9518 101.979 63.1602 101.562C63.375 101.146 63.4824 100.671 63.4824 100.137C63.4824 99.6484 63.375 99.1895 63.1602 98.7598C62.9518 98.3301 62.6198 97.985 62.1641 97.7246C61.7083 97.4577 61.1126 97.3242 60.377 97.3242H57.0176V110H55.1328V95.7812H60.377C61.4512 95.7812 62.3594 95.9668 63.1016 96.3379C63.8438 96.709 64.4069 97.2233 64.791 97.8809C65.1751 98.5319 65.3672 99.2773 65.3672 100.117C65.3672 101.029 65.1751 101.807 64.791 102.451C64.4069 103.096 63.8438 103.587 63.1016 103.926C62.3594 104.258 61.4512 104.424 60.377 104.424ZM71.7246 110.195C70.9889 110.195 70.3216 110.072 69.7227 109.824C69.1302 109.57 68.6191 109.215 68.1895 108.76C67.7663 108.304 67.4408 107.764 67.2129 107.139C66.985 106.514 66.8711 105.83 66.8711 105.088V104.678C66.8711 103.818 66.998 103.053 67.252 102.383C67.5059 101.706 67.8509 101.133 68.2871 100.664C68.7233 100.195 69.2181 99.8405 69.7715 99.5996C70.3249 99.3587 70.8978 99.2383 71.4902 99.2383C72.2454 99.2383 72.8965 99.3685 73.4434 99.6289C73.9967 99.8893 74.4492 100.254 74.8008 100.723C75.1523 101.185 75.4128 101.732 75.582 102.363C75.7513 102.988 75.8359 103.672 75.8359 104.414V105.225H67.9453V103.75H74.0293V103.613C74.0033 103.145 73.9056 102.689 73.7363 102.246C73.5736 101.803 73.3132 101.439 72.9551 101.152C72.597 100.866 72.1087 100.723 71.4902 100.723C71.0801 100.723 70.7025 100.811 70.3574 100.986C70.0124 101.156 69.7161 101.41 69.4688 101.748C69.2214 102.087 69.0293 102.5 68.8926 102.988C68.7559 103.477 68.6875 104.04 68.6875 104.678V105.088C68.6875 105.589 68.7559 106.061 68.8926 106.504C69.0358 106.94 69.2409 107.324 69.5078 107.656C69.7812 107.988 70.11 108.249 70.4941 108.438C70.8848 108.626 71.3275 108.721 71.8223 108.721C72.4603 108.721 73.0007 108.59 73.4434 108.33C73.8861 108.07 74.2734 107.721 74.6055 107.285L75.6992 108.154C75.4714 108.499 75.1816 108.828 74.8301 109.141C74.4785 109.453 74.0456 109.707 73.5312 109.902C73.0234 110.098 72.4212 110.195 71.7246 110.195ZM82.3691 99.4336V100.82H76.6562V99.4336H82.3691ZM78.5898 96.8652H80.3965V107.383C80.3965 107.741 80.4518 108.011 80.5625 108.193C80.6732 108.376 80.8164 108.496 80.9922 108.555C81.168 108.613 81.3568 108.643 81.5586 108.643C81.7083 108.643 81.8646 108.63 82.0273 108.604C82.1966 108.571 82.3236 108.545 82.4082 108.525L82.418 110C82.2747 110.046 82.0859 110.088 81.8516 110.127C81.6237 110.173 81.347 110.195 81.0215 110.195C80.5788 110.195 80.1719 110.107 79.8008 109.932C79.4297 109.756 79.1335 109.463 78.9121 109.053C78.6973 108.636 78.5898 108.076 78.5898 107.373V96.8652ZM88.248 103.213V104.697H83.4824V103.213H88.248ZM92.7109 110H90.9043V98.3203C90.9043 97.5586 91.041 96.9173 91.3145 96.3965C91.5944 95.8691 91.9948 95.472 92.5156 95.2051C93.0365 94.9316 93.6549 94.7949 94.3711 94.7949C94.5794 94.7949 94.7878 94.8079 94.9961 94.834C95.2109 94.86 95.4193 94.8991 95.6211 94.9512L95.5234 96.4258C95.3867 96.3932 95.2305 96.3704 95.0547 96.3574C94.8854 96.3444 94.7161 96.3379 94.5469 96.3379C94.1628 96.3379 93.8307 96.416 93.5508 96.5723C93.2773 96.722 93.069 96.9434 92.9258 97.2363C92.7826 97.5293 92.7109 97.8906 92.7109 98.3203V110ZM94.957 99.4336V100.82H89.2344V99.4336H94.957ZM98.7754 101.094V110H96.9688V99.4336H98.7266L98.7754 101.094ZM102.076 99.375L102.066 101.055C101.917 101.022 101.773 101.003 101.637 100.996C101.507 100.983 101.357 100.977 101.188 100.977C100.771 100.977 100.403 101.042 100.084 101.172C99.765 101.302 99.4948 101.484 99.2734 101.719C99.0521 101.953 98.8763 102.233 98.7461 102.559C98.6224 102.878 98.541 103.229 98.502 103.613L97.9941 103.906C97.9941 103.268 98.056 102.669 98.1797 102.109C98.3099 101.549 98.5085 101.055 98.7754 100.625C99.0423 100.189 99.3809 99.8503 99.791 99.6094C100.208 99.362 100.702 99.2383 101.275 99.2383C101.406 99.2383 101.555 99.2546 101.725 99.2871C101.894 99.3132 102.011 99.3424 102.076 99.375ZM105.709 99.4336V110H103.893V99.4336H105.709ZM103.756 96.6309C103.756 96.3379 103.844 96.0905 104.02 95.8887C104.202 95.6868 104.469 95.5859 104.82 95.5859C105.165 95.5859 105.429 95.6868 105.611 95.8887C105.8 96.0905 105.895 96.3379 105.895 96.6309C105.895 96.9108 105.8 97.1517 105.611 97.3535C105.429 97.5488 105.165 97.6465 104.82 97.6465C104.469 97.6465 104.202 97.5488 104.02 97.3535C103.844 97.1517 103.756 96.9108 103.756 96.6309ZM112.994 110.195C112.258 110.195 111.591 110.072 110.992 109.824C110.4 109.57 109.889 109.215 109.459 108.76C109.036 108.304 108.71 107.764 108.482 107.139C108.255 106.514 108.141 105.83 108.141 105.088V104.678C108.141 103.818 108.268 103.053 108.521 102.383C108.775 101.706 109.12 101.133 109.557 100.664C109.993 100.195 110.488 99.8405 111.041 99.5996C111.594 99.3587 112.167 99.2383 112.76 99.2383C113.515 99.2383 114.166 99.3685 114.713 99.6289C115.266 99.8893 115.719 100.254 116.07 100.723C116.422 101.185 116.682 101.732 116.852 102.363C117.021 102.988 117.105 103.672 117.105 104.414V105.225H109.215V103.75H115.299V103.613C115.273 103.145 115.175 102.689 115.006 102.246C114.843 101.803 114.583 101.439 114.225 101.152C113.867 100.866 113.378 100.723 112.76 100.723C112.35 100.723 111.972 100.811 111.627 100.986C111.282 101.156 110.986 101.41 110.738 101.748C110.491 102.087 110.299 102.5 110.162 102.988C110.025 103.477 109.957 104.04 109.957 104.678V105.088C109.957 105.589 110.025 106.061 110.162 106.504C110.305 106.94 110.51 107.324 110.777 107.656C111.051 107.988 111.38 108.249 111.764 108.438C112.154 108.626 112.597 108.721 113.092 108.721C113.73 108.721 114.27 108.59 114.713 108.33C115.156 108.07 115.543 107.721 115.875 107.285L116.969 108.154C116.741 108.499 116.451 108.828 116.1 109.141C115.748 109.453 115.315 109.707 114.801 109.902C114.293 110.098 113.691 110.195 112.994 110.195ZM121.021 101.689V110H119.215V99.4336H120.924L121.021 101.689ZM120.592 104.316L119.84 104.287C119.846 103.564 119.954 102.897 120.162 102.285C120.37 101.667 120.663 101.13 121.041 100.674C121.419 100.218 121.868 99.8665 122.389 99.6191C122.916 99.3652 123.499 99.2383 124.137 99.2383C124.658 99.2383 125.126 99.3099 125.543 99.4531C125.96 99.5898 126.314 99.8112 126.607 100.117C126.907 100.423 127.135 100.82 127.291 101.309C127.447 101.79 127.525 102.38 127.525 103.076V110H125.709V103.057C125.709 102.503 125.628 102.061 125.465 101.729C125.302 101.39 125.064 101.146 124.752 100.996C124.439 100.84 124.055 100.762 123.6 100.762C123.15 100.762 122.74 100.856 122.369 101.045C122.005 101.234 121.689 101.494 121.422 101.826C121.161 102.158 120.956 102.539 120.807 102.969C120.663 103.392 120.592 103.841 120.592 104.316ZM136.93 107.949V95H138.746V110H137.086L136.93 107.949ZM129.82 104.834V104.629C129.82 103.822 129.918 103.089 130.113 102.432C130.315 101.768 130.598 101.198 130.963 100.723C131.334 100.247 131.773 99.8828 132.281 99.6289C132.796 99.3685 133.368 99.2383 134 99.2383C134.664 99.2383 135.243 99.3555 135.738 99.5898C136.24 99.8177 136.663 100.153 137.008 100.596C137.359 101.032 137.636 101.559 137.838 102.178C138.04 102.796 138.18 103.496 138.258 104.277V105.176C138.186 105.951 138.046 106.647 137.838 107.266C137.636 107.884 137.359 108.411 137.008 108.848C136.663 109.284 136.24 109.619 135.738 109.854C135.237 110.081 134.651 110.195 133.98 110.195C133.362 110.195 132.796 110.062 132.281 109.795C131.773 109.528 131.334 109.154 130.963 108.672C130.598 108.19 130.315 107.624 130.113 106.973C129.918 106.315 129.82 105.602 129.82 104.834ZM131.637 104.629V104.834C131.637 105.361 131.689 105.856 131.793 106.318C131.904 106.781 132.073 107.188 132.301 107.539C132.529 107.891 132.818 108.167 133.17 108.369C133.521 108.564 133.941 108.662 134.43 108.662C135.029 108.662 135.52 108.535 135.904 108.281C136.295 108.027 136.607 107.692 136.842 107.275C137.076 106.859 137.258 106.406 137.389 105.918V103.564C137.311 103.206 137.197 102.861 137.047 102.529C136.904 102.191 136.715 101.891 136.48 101.631C136.253 101.364 135.969 101.152 135.631 100.996C135.299 100.84 134.905 100.762 134.449 100.762C133.954 100.762 133.528 100.866 133.17 101.074C132.818 101.276 132.529 101.556 132.301 101.914C132.073 102.266 131.904 102.676 131.793 103.145C131.689 103.607 131.637 104.102 131.637 104.629ZM143.521 95V110H141.705V95H143.521ZM149.391 108.906L152.33 99.4336H154.264L150.025 111.631C149.928 111.891 149.798 112.171 149.635 112.471C149.479 112.777 149.277 113.066 149.029 113.34C148.782 113.613 148.482 113.835 148.131 114.004C147.786 114.18 147.372 114.268 146.891 114.268C146.747 114.268 146.565 114.248 146.344 114.209C146.122 114.17 145.966 114.137 145.875 114.111L145.865 112.646C145.917 112.653 145.999 112.66 146.109 112.666C146.227 112.679 146.308 112.686 146.354 112.686C146.764 112.686 147.112 112.63 147.398 112.52C147.685 112.415 147.926 112.236 148.121 111.982C148.323 111.735 148.495 111.393 148.639 110.957L149.391 108.906ZM147.232 99.4336L149.977 107.637L150.445 109.541L149.146 110.205L145.26 99.4336H147.232Z" fill="#222222"/>
</svg>
