<svg width="75" height="65" viewBox="0 0 75 65" fill="none" xmlns="http://www.w3.org/2000/svg">
<path d="M37.8917 12.1341C34.6823 12.1341 35.2172 16.6674 35.8858 18.9341C31.0717 19.0674 21.4435 18.3531 21.4435 12.1341C21.4434 6.93406 30.0239 0.534043 37.8917 0.534058C45.514 0.534058 53.5375 6.53406 53.5375 12.1341C53.5375 18.0721 44.4442 19.2007 39.8975 18.9341C40.5662 16.6674 41.1011 12.1341 37.8917 12.1341Z" fill="#F48221"/>
<path d="M24.2516 37.7345C20.0793 34.8545 16.6292 29.6012 15.4257 27.3345C15.4257 32.4545 12.7513 38.0012 11.414 40.1345C12.3768 40.7745 13.9548 40.6678 14.6234 40.5345C13.6606 48.5345 9.40839 49.7339 6.19881 48.9341C-0.219714 46.9339 -1.82457 34.3565 2.18703 28.1342C5.28177 23.3341 13.8212 14.9343 26.2576 21.7344C36.4993 27.3345 36.2869 43.3341 30.2693 45.3341C26.418 46.6141 22.3794 41.8679 21.0422 39.3345C22.3259 39.3345 23.7167 38.2679 24.2516 37.7345Z" fill="#83C241"/>
<path d="M68.3808 32.534C69.5843 35.734 65.3827 39.1456 63.5666 37.3343C62.3631 36.134 63.8341 34.534 64.7702 34.134C64.3691 33.3336 60.6885 32.6395 59.1537 38.5342C56.9667 46.9339 66.0941 54.1438 71.9913 46.5342C78.8113 37.7339 73.9972 18.5437 57.9502 18.934C41.502 19.334 40.2985 33.7342 40.2985 35.3342C40.2985 36.9342 39.8973 43.7342 44.7114 44.5342C49.5255 45.3342 51.9325 41.3342 52.7349 39.3342C53.5372 37.3342 55.142 33.734 58.7526 31.334C62.3631 28.934 67.1772 29.334 68.3808 32.534Z" fill="#209CD2"/>
<ellipse cx="38.2926" cy="53.734" rx="18.0529" ry="4.4" fill="#9C64AF"/>
<ellipse cx="38.2928" cy="62.134" rx="10.0294" ry="2.4" fill="#9C64AF"/>
</svg>
