<svg width="93" height="80" viewBox="0 0 93 80" fill="none" xmlns="http://www.w3.org/2000/svg">
<path d="M46.9856 14.5C43.006 14.5 43.6692 20.1667 44.4983 23C38.5288 23.1667 26.5899 22.2738 26.5898 14.5C26.5898 8 37.2295 -1.88029e-05 46.9856 0C56.4372 0 66.3863 7.5 66.3863 14.5C66.3863 21.9225 55.1107 23.3333 49.4728 23C50.3019 20.1667 50.9653 14.5 46.9856 14.5Z" fill="#FF3939"/>
<path d="M30.0719 46.5005C24.8983 42.9005 20.6202 36.3338 19.1278 33.5005C19.1278 39.9005 15.8115 46.8338 14.1534 49.5005C15.3473 50.3005 17.3039 50.1671 18.133 50.0005C16.9391 60.0005 11.6664 61.4998 7.68652 60.5C-0.272444 57.9998 -2.26246 42.2779 2.71191 34.5001C6.54938 28.5 17.1382 18.0002 32.5594 26.5004C45.2591 33.5005 44.9957 53.5 37.5339 56C32.7583 57.6 27.7504 51.6672 26.0922 48.5005C27.6841 48.5005 29.4086 47.1672 30.0719 46.5005Z" fill="#FF3939"/>
<path d="M84.7922 40C86.2846 44 81.0746 48.2646 78.8227 46.0004C77.3304 44.5 79.1544 42.5 80.3151 42C79.8177 40.9996 75.2538 40.132 73.3507 47.5003C70.6388 58 81.9567 67.0124 89.2693 57.5003C97.7261 46.5 91.7566 22.5122 71.8584 23C51.4627 23.5 49.9702 41.5004 49.9702 43.5004C49.9702 45.5004 49.4728 54.0004 55.4423 55.0004C61.4117 56.0004 64.3965 51.0004 65.3914 48.5004C66.3863 46.0004 68.3762 41.5 72.8533 38.5C77.3304 35.5 83.2998 36 84.7922 40Z" fill="#FF3939"/>
<ellipse cx="47.4831" cy="66.5" rx="22.3855" ry="5.5" fill="#FF3939"/>
<ellipse cx="47.483" cy="77" rx="12.4364" ry="3" fill="#FF3939"/>
</svg>
