<svg width="208" height="135" viewBox="0 0 208 135" fill="none" xmlns="http://www.w3.org/2000/svg">
<rect x="0.5" y="0.5" width="207" height="134" rx="4.5" fill="#FAFAFA" stroke="#222222"/>
<path d="M123.06 62.6064H131.54V68.9664C131.54 70.1367 130.59 71.0864 129.42 71.0864H125.18C124.01 71.0864 123.06 70.1367 123.06 68.9664V62.6064Z" stroke="#435469" stroke-width="4.24"/>
<path d="M76.4199 62.6064H84.8999V68.9664C84.8999 70.1367 83.9502 71.0864 82.7799 71.0864H78.5399C77.3697 71.0864 76.4199 70.1367 76.4199 68.9664V62.6064Z" stroke="#435469" stroke-width="4.24"/>
<path d="M84.8999 41.4058H123.06C127.743 41.4058 131.54 45.2027 131.54 49.8858V60.4858C131.54 61.656 130.59 62.6058 129.42 62.6058H78.5399C77.3697 62.6058 76.4199 61.656 76.4199 60.4858V49.8858C76.4199 45.2027 80.2168 41.4058 84.8999 41.4058Z" stroke="#435469" stroke-width="4.24"/>
<path d="M123.06 49.8857C124.23 49.8857 125.18 50.8355 125.18 52.0057C125.18 53.176 124.23 54.1257 123.06 54.1257C121.89 54.1257 120.94 53.176 120.94 52.0057C120.94 50.8355 121.89 49.8857 123.06 49.8857Z" fill="#435469"/>
<path d="M84.8998 49.8857C86.07 49.8857 87.0198 50.8355 87.0198 52.0057C87.0198 53.176 86.07 54.1257 84.8998 54.1257C83.7295 54.1257 82.7798 53.176 82.7798 52.0057C82.7798 50.8355 83.7295 49.8857 84.8998 49.8857Z" fill="#435469"/>
<path d="M88.4893 24.4463H119.471C120.355 24.4463 121.146 24.9954 121.455 25.8222L127.3 41.4063H80.6602L86.505 25.8222C86.8145 24.9954 87.6053 24.4463 88.4893 24.4463Z" stroke="#435469" stroke-width="4.24"/>
<path d="M74.2998 37.1659C74.2998 35.9951 75.249 35.0459 76.4198 35.0459H78.5398C79.7106 35.0459 80.6598 35.9951 80.6598 37.1659C80.6598 38.3367 79.7106 39.2859 78.5398 39.2859H76.4198C75.249 39.2859 74.2998 38.3367 74.2998 37.1659Z" fill="#435469"/>
<path d="M127.3 37.1659C127.3 35.9951 128.249 35.0459 129.42 35.0459H131.54C132.711 35.0459 133.66 35.9951 133.66 37.1659C133.66 38.3367 132.711 39.2859 131.54 39.2859H129.42C128.249 39.2859 127.3 38.3367 127.3 37.1659Z" fill="#435469"/>
<path d="M93.3799 52.8003L114.58 52.8003" stroke="#435469" stroke-width="4.24" stroke-linecap="round"/>
<path d="M70.7383 95.7812V110H68.8633V97.3242H61.8516V110H59.9668V95.7812H70.7383ZM80.1133 108.193V102.754C80.1133 102.337 80.0286 101.976 79.8594 101.67C79.6966 101.357 79.4492 101.117 79.1172 100.947C78.7852 100.778 78.375 100.693 77.8867 100.693C77.431 100.693 77.0306 100.771 76.6855 100.928C76.347 101.084 76.0801 101.289 75.8848 101.543C75.696 101.797 75.6016 102.07 75.6016 102.363H73.7949C73.7949 101.986 73.8926 101.611 74.0879 101.24C74.2832 100.869 74.5632 100.534 74.9277 100.234C75.2988 99.9284 75.7415 99.6875 76.2559 99.5117C76.7767 99.3294 77.3561 99.2383 77.9941 99.2383C78.7624 99.2383 79.4395 99.3685 80.0254 99.6289C80.6178 99.8893 81.0801 100.283 81.4121 100.811C81.7507 101.331 81.9199 101.986 81.9199 102.773V107.695C81.9199 108.047 81.9492 108.421 82.0078 108.818C82.0729 109.215 82.1673 109.557 82.291 109.844V110H80.4062C80.3151 109.792 80.2435 109.515 80.1914 109.17C80.1393 108.818 80.1133 108.493 80.1133 108.193ZM80.4258 103.594L80.4453 104.863H78.6191C78.1048 104.863 77.6458 104.906 77.2422 104.99C76.8385 105.068 76.5 105.189 76.2266 105.352C75.9531 105.514 75.7448 105.719 75.6016 105.967C75.4583 106.208 75.3867 106.491 75.3867 106.816C75.3867 107.148 75.4616 107.451 75.6113 107.725C75.7611 107.998 75.9857 108.216 76.2852 108.379C76.5911 108.535 76.9655 108.613 77.4082 108.613C77.9616 108.613 78.4499 108.496 78.873 108.262C79.2962 108.027 79.6315 107.741 79.8789 107.402C80.1328 107.064 80.2695 106.735 80.2891 106.416L81.0605 107.285C81.015 107.559 80.8913 107.861 80.6895 108.193C80.4876 108.525 80.2174 108.844 79.8789 109.15C79.5469 109.45 79.1497 109.701 78.6875 109.902C78.2318 110.098 77.7174 110.195 77.1445 110.195C76.4284 110.195 75.8001 110.055 75.2598 109.775C74.7259 109.495 74.3092 109.121 74.0098 108.652C73.7168 108.177 73.5703 107.646 73.5703 107.061C73.5703 106.494 73.681 105.996 73.9023 105.566C74.1237 105.13 74.4427 104.769 74.8594 104.482C75.276 104.189 75.7773 103.968 76.3633 103.818C76.9492 103.669 77.6035 103.594 78.3262 103.594H80.4258ZM86.5684 101.465V114.062H84.752V99.4336H86.4121L86.5684 101.465ZM93.6875 104.629V104.834C93.6875 105.602 93.5964 106.315 93.4141 106.973C93.2318 107.624 92.9648 108.19 92.6133 108.672C92.2682 109.154 91.8418 109.528 91.334 109.795C90.8262 110.062 90.2435 110.195 89.5859 110.195C88.9154 110.195 88.3229 110.085 87.8086 109.863C87.2943 109.642 86.8581 109.32 86.5 108.896C86.1419 108.473 85.8555 107.965 85.6406 107.373C85.4323 106.781 85.2891 106.113 85.2109 105.371V104.277C85.2891 103.496 85.4355 102.796 85.6504 102.178C85.8652 101.559 86.1484 101.032 86.5 100.596C86.8581 100.153 87.291 99.8177 87.7988 99.5898C88.3066 99.3555 88.8926 99.2383 89.5566 99.2383C90.2207 99.2383 90.8099 99.3685 91.3242 99.6289C91.8385 99.8828 92.2715 100.247 92.623 100.723C92.9746 101.198 93.2383 101.768 93.4141 102.432C93.5964 103.089 93.6875 103.822 93.6875 104.629ZM91.8711 104.834V104.629C91.8711 104.102 91.8158 103.607 91.7051 103.145C91.5944 102.676 91.4219 102.266 91.1875 101.914C90.9596 101.556 90.6667 101.276 90.3086 101.074C89.9505 100.866 89.5241 100.762 89.0293 100.762C88.5736 100.762 88.1764 100.84 87.8379 100.996C87.5059 101.152 87.2227 101.364 86.9883 101.631C86.7539 101.891 86.5618 102.191 86.4121 102.529C86.2689 102.861 86.1615 103.206 86.0898 103.564V106.094C86.2201 106.549 86.4023 106.979 86.6367 107.383C86.8711 107.78 87.1836 108.102 87.5742 108.35C87.9648 108.59 88.4564 108.711 89.0488 108.711C89.5371 108.711 89.957 108.61 90.3086 108.408C90.6667 108.2 90.9596 107.917 91.1875 107.559C91.4219 107.201 91.5944 106.79 91.7051 106.328C91.8158 105.859 91.8711 105.361 91.8711 104.834ZM97.9551 99.4336V110H96.1484V99.4336H97.9551ZM104.889 99.4336L99.8789 105.488H97.3496L97.0762 103.906H99.1465L102.691 99.4336H104.889ZM102.945 110L99.0586 105.215L100.221 103.906L105.24 110H102.945ZM106.119 104.834V104.609C106.119 103.848 106.23 103.141 106.451 102.49C106.673 101.833 106.992 101.263 107.408 100.781C107.825 100.293 108.329 99.9154 108.922 99.6484C109.514 99.375 110.178 99.2383 110.914 99.2383C111.656 99.2383 112.324 99.375 112.916 99.6484C113.515 99.9154 114.023 100.293 114.439 100.781C114.863 101.263 115.185 101.833 115.406 102.49C115.628 103.141 115.738 103.848 115.738 104.609V104.834C115.738 105.596 115.628 106.302 115.406 106.953C115.185 107.604 114.863 108.174 114.439 108.662C114.023 109.144 113.518 109.521 112.926 109.795C112.34 110.062 111.676 110.195 110.934 110.195C110.191 110.195 109.524 110.062 108.932 109.795C108.339 109.521 107.831 109.144 107.408 108.662C106.992 108.174 106.673 107.604 106.451 106.953C106.23 106.302 106.119 105.596 106.119 104.834ZM107.926 104.609V104.834C107.926 105.361 107.988 105.859 108.111 106.328C108.235 106.79 108.421 107.201 108.668 107.559C108.922 107.917 109.238 108.2 109.615 108.408C109.993 108.61 110.432 108.711 110.934 108.711C111.428 108.711 111.861 108.61 112.232 108.408C112.61 108.2 112.923 107.917 113.17 107.559C113.417 107.201 113.603 106.79 113.727 106.328C113.857 105.859 113.922 105.361 113.922 104.834V104.609C113.922 104.089 113.857 103.597 113.727 103.135C113.603 102.666 113.414 102.253 113.16 101.895C112.913 101.53 112.6 101.243 112.223 101.035C111.852 100.827 111.415 100.723 110.914 100.723C110.419 100.723 109.983 100.827 109.605 101.035C109.234 101.243 108.922 101.53 108.668 101.895C108.421 102.253 108.235 102.666 108.111 103.135C107.988 103.597 107.926 104.089 107.926 104.609ZM122.965 105.352H119.498L119.479 103.906H122.311C122.87 103.906 123.336 103.851 123.707 103.74C124.085 103.63 124.368 103.464 124.557 103.242C124.745 103.021 124.84 102.747 124.84 102.422C124.84 102.168 124.785 101.947 124.674 101.758C124.57 101.562 124.41 101.403 124.195 101.279C123.98 101.149 123.714 101.055 123.395 100.996C123.082 100.931 122.714 100.898 122.291 100.898H119.977V110H118.17V99.4336H122.291C122.962 99.4336 123.564 99.4922 124.098 99.6094C124.638 99.7266 125.097 99.9056 125.475 100.146C125.859 100.381 126.152 100.68 126.354 101.045C126.555 101.41 126.656 101.839 126.656 102.334C126.656 102.653 126.591 102.956 126.461 103.242C126.331 103.529 126.139 103.783 125.885 104.004C125.631 104.225 125.318 104.408 124.947 104.551C124.576 104.688 124.15 104.775 123.668 104.814L122.965 105.352ZM122.965 110H118.844L119.742 108.535H122.965C123.466 108.535 123.883 108.473 124.215 108.35C124.547 108.219 124.794 108.037 124.957 107.803C125.126 107.562 125.211 107.275 125.211 106.943C125.211 106.611 125.126 106.328 124.957 106.094C124.794 105.853 124.547 105.671 124.215 105.547C123.883 105.417 123.466 105.352 122.965 105.352H120.221L120.24 103.906H123.668L124.322 104.453C124.902 104.499 125.393 104.642 125.797 104.883C126.201 105.124 126.507 105.43 126.715 105.801C126.923 106.165 127.027 106.562 127.027 106.992C127.027 107.487 126.933 107.923 126.744 108.301C126.562 108.678 126.295 108.994 125.943 109.248C125.592 109.495 125.165 109.684 124.664 109.814C124.163 109.938 123.596 110 122.965 110ZM131.412 99.4336V110H129.605V99.4336H131.412ZM138.346 99.4336L133.336 105.488H130.807L130.533 103.906H132.604L136.148 99.4336H138.346ZM136.402 110L132.516 105.215L133.678 103.906L138.697 110H136.402ZM146.5 108.193V102.754C146.5 102.337 146.415 101.976 146.246 101.67C146.083 101.357 145.836 101.117 145.504 100.947C145.172 100.778 144.762 100.693 144.273 100.693C143.818 100.693 143.417 100.771 143.072 100.928C142.734 101.084 142.467 101.289 142.271 101.543C142.083 101.797 141.988 102.07 141.988 102.363H140.182C140.182 101.986 140.279 101.611 140.475 101.24C140.67 100.869 140.95 100.534 141.314 100.234C141.686 99.9284 142.128 99.6875 142.643 99.5117C143.163 99.3294 143.743 99.2383 144.381 99.2383C145.149 99.2383 145.826 99.3685 146.412 99.6289C147.005 99.8893 147.467 100.283 147.799 100.811C148.137 101.331 148.307 101.986 148.307 102.773V107.695C148.307 108.047 148.336 108.421 148.395 108.818C148.46 109.215 148.554 109.557 148.678 109.844V110H146.793C146.702 109.792 146.63 109.515 146.578 109.17C146.526 108.818 146.5 108.493 146.5 108.193ZM146.812 103.594L146.832 104.863H145.006C144.492 104.863 144.033 104.906 143.629 104.99C143.225 105.068 142.887 105.189 142.613 105.352C142.34 105.514 142.132 105.719 141.988 105.967C141.845 106.208 141.773 106.491 141.773 106.816C141.773 107.148 141.848 107.451 141.998 107.725C142.148 107.998 142.372 108.216 142.672 108.379C142.978 108.535 143.352 108.613 143.795 108.613C144.348 108.613 144.837 108.496 145.26 108.262C145.683 108.027 146.018 107.741 146.266 107.402C146.52 107.064 146.656 106.735 146.676 106.416L147.447 107.285C147.402 107.559 147.278 107.861 147.076 108.193C146.874 108.525 146.604 108.844 146.266 109.15C145.934 109.45 145.536 109.701 145.074 109.902C144.618 110.098 144.104 110.195 143.531 110.195C142.815 110.195 142.187 110.055 141.646 109.775C141.113 109.495 140.696 109.121 140.396 108.652C140.104 108.177 139.957 107.646 139.957 107.061C139.957 106.494 140.068 105.996 140.289 105.566C140.51 105.13 140.829 104.769 141.246 104.482C141.663 104.189 142.164 103.968 142.75 103.818C143.336 103.669 143.99 103.594 144.713 103.594H146.812Z" fill="#222222"/>
</svg>
