<svg width="208" height="135" viewBox="0 0 208 135" fill="none" xmlns="http://www.w3.org/2000/svg">
<rect x="0.5" y="0.5" width="207" height="134" rx="4.5" fill="#FAFAFA" stroke="#222222"/>
<path d="M99.4533 64.3232C99.4533 61.8742 101.44 59.8878 103.889 59.8878C106.338 59.8878 108.324 61.8742 108.324 64.3232C108.324 66.7722 106.338 68.7555 103.889 68.7555C101.44 68.7555 99.4533 66.7722 99.4533 64.3232ZM112.756 64.3232C112.756 59.4252 108.787 55.4556 103.889 55.4556C98.9906 55.4556 95.021 59.4252 95.021 64.3232C95.021 69.2212 98.9906 73.1909 103.889 73.1909C108.787 73.1909 112.756 69.2212 112.756 64.3232Z" fill="#435469"/>
<path d="M120.645 56.435C121.286 55.7936 121.453 54.8068 120.985 54.03C117.493 48.2397 111.143 44.3706 103.889 44.3706C96.6339 44.3706 90.2844 48.2421 86.7925 54.03C86.3239 54.8068 86.4909 55.7936 87.1325 56.4352C88.2066 57.5093 90.0537 57.1234 90.8841 55.8513C93.6538 51.6086 98.4431 48.8029 103.889 48.8029C109.334 48.8029 114.123 51.6085 116.893 55.8512C117.723 57.1233 119.571 57.5093 120.645 56.435Z" fill="#435469"/>
<path d="M128.564 48.516C129.295 47.7848 129.417 46.6356 128.8 45.8066C123.142 38.2063 114.091 33.2847 103.889 33.2847C93.6876 33.2847 84.6369 38.208 78.9787 45.8047C78.3606 46.6346 78.4836 47.7852 79.2157 48.5165C80.2127 49.5127 81.8783 49.3103 82.7338 48.1903C87.5947 41.8266 95.2627 37.72 103.889 37.72C112.517 37.72 120.184 41.826 125.045 48.1911C125.901 49.3117 127.568 49.5135 128.564 48.516Z" fill="#435469"/>
<path d="M136.439 40.6412C137.208 39.8722 137.303 38.652 136.618 37.8074C128.896 28.288 117.101 22.2002 103.888 22.2002C90.6766 22.2002 78.8821 28.2872 71.1603 37.8056C70.4745 38.651 70.5704 39.8725 71.3409 40.6415C72.302 41.6007 73.8918 41.4639 74.7537 40.4147C81.665 32.0021 92.1492 26.6356 103.888 26.6356C115.627 26.6356 126.113 32.0015 133.025 40.4158C133.887 41.4655 135.478 41.6018 136.439 40.6412Z" fill="#435469"/>
<path d="M87.3594 105.703L90.1816 95.7812H91.5488L90.7578 99.6387L87.7207 110H86.3633L87.3594 105.703ZM84.4395 95.7812L86.6855 105.508L87.3594 110H86.0117L82.5645 95.7812H84.4395ZM95.2012 105.498L97.3984 95.7812H99.2832L95.8457 110H94.498L95.2012 105.498ZM91.7539 95.7812L94.498 105.703L95.4941 110H94.1367L91.207 99.6387L90.4062 95.7812H91.7539ZM103.062 99.4336V110H101.246V99.4336H103.062ZM101.109 96.6309C101.109 96.3379 101.197 96.0905 101.373 95.8887C101.555 95.6868 101.822 95.5859 102.174 95.5859C102.519 95.5859 102.783 95.6868 102.965 95.8887C103.154 96.0905 103.248 96.3379 103.248 96.6309C103.248 96.9108 103.154 97.1517 102.965 97.3535C102.783 97.5488 102.519 97.6465 102.174 97.6465C101.822 97.6465 101.555 97.5488 101.373 97.3535C101.197 97.1517 101.109 96.9108 101.109 96.6309ZM109.723 103.213V104.697H104.957V103.213H109.723ZM113.648 95.7812V110H111.764V95.7812H113.648ZM119.605 102.178V103.721H113.238V102.178H119.605ZM120.572 95.7812V97.3242H113.238V95.7812H120.572ZM124.508 99.4336V110H122.691V99.4336H124.508ZM122.555 96.6309C122.555 96.3379 122.643 96.0905 122.818 95.8887C123.001 95.6868 123.268 95.5859 123.619 95.5859C123.964 95.5859 124.228 95.6868 124.41 95.8887C124.599 96.0905 124.693 96.3379 124.693 96.6309C124.693 96.9108 124.599 97.1517 124.41 97.3535C124.228 97.5488 123.964 97.6465 123.619 97.6465C123.268 97.6465 123.001 97.5488 122.818 97.3535C122.643 97.1517 122.555 96.9108 122.555 96.6309Z" fill="#222222"/>
</svg>
