<svg width="80" height="80" viewBox="0 0 117 117" fill="none" xmlns="http://www.w3.org/2000/svg">
<g filter="url(#filter0_d_730_1250)">
<path d="M101 53.5C101 76.9721 81.9721 96 58.5 96C35.0279 96 16 76.9721 16 53.5C16 30.0279 35.0279 11 58.5 11C81.9721 11 101 30.0279 101 53.5Z" fill="#FAFAFA"/>
</g>
<path fill-rule="evenodd" clip-rule="evenodd" d="M59.7401 35.0278C60.4249 35.5955 60.4249 36.5158 59.7401 37.0835L39.7197 53.6792C39.0349 54.2468 37.9247 54.2468 37.2399 53.6792C36.5551 53.1115 36.5551 52.1912 37.2399 51.6235L57.2602 35.0279C57.945 34.4602 59.0553 34.4602 59.7401 35.0278Z" fill="#F17ACF"/>
<path fill-rule="evenodd" clip-rule="evenodd" d="M57.2601 35.0278C56.5753 35.5955 56.5753 36.5158 57.2601 37.0835L77.2804 53.6792C77.9652 54.2468 79.0754 54.2468 79.7602 53.6792C80.445 53.1115 80.445 52.1912 79.7602 51.6235L59.7399 35.0278C59.0551 34.4602 57.9448 34.4602 57.2601 35.0278Z" fill="#F17ACF"/>
<path fill-rule="evenodd" clip-rule="evenodd" d="M60.1396 73.375H56.8643C50.7279 73.375 47.6598 73.375 45.509 71.871C44.8144 71.3853 44.2036 70.7973 43.699 70.1288C42.1364 68.0587 42.1364 65.1058 42.1364 59.2V56.4969C42.1364 53.555 42.1364 52.084 42.6476 50.7581C42.8164 50.3205 43.0252 49.8982 43.2717 49.4962C44.0184 48.2782 45.2045 47.3506 47.5768 45.4955L58.5001 36.9531L69.4235 45.4955C71.7957 47.3506 72.9818 48.2782 73.7286 49.4962C73.975 49.8982 74.1838 50.3205 74.3526 50.7581C74.8639 52.084 74.8639 53.555 74.8639 56.4969V59.2C74.8639 65.1058 74.8639 68.0587 73.3013 70.1288C72.7966 70.7973 72.1858 71.3853 71.4912 71.871C69.3404 73.375 66.2735 73.375 60.1396 73.375ZM53.7955 64.4017C53.0048 64.4017 52.3637 65.0187 52.3637 65.7798C52.3637 66.5409 53.0048 67.1579 53.7955 67.1579H63.1117C63.9025 67.1579 64.5435 66.5409 64.5435 65.7798C64.5435 65.0187 63.9025 64.4017 63.1117 64.4017H53.7955Z" fill="#F17ACF"/>
<defs>
<filter id="filter0_d_730_1250" x="0" y="0" width="117" height="117" filterUnits="userSpaceOnUse" color-interpolation-filters="sRGB">
<feFlood flood-opacity="0" result="BackgroundImageFix"/>
<feColorMatrix in="SourceAlpha" type="matrix" values="0 0 0 0 0 0 0 0 0 0 0 0 0 0 0 0 0 0 127 0" result="hardAlpha"/>
<feOffset dy="5"/>
<feGaussianBlur stdDeviation="8"/>
<feComposite in2="hardAlpha" operator="out"/>
<feColorMatrix type="matrix" values="0 0 0 0 0.579167 0 0 0 0 0.579167 0 0 0 0 0.579167 0 0 0 0.25 0"/>
<feBlend mode="normal" in2="BackgroundImageFix" result="effect1_dropShadow_730_1250"/>
<feBlend mode="normal" in="SourceGraphic" in2="effect1_dropShadow_730_1250" result="shape"/>
</filter>
</defs>
</svg>
