<svg width="80" height="80" viewBox="0 0 117 117" fill="none" xmlns="http://www.w3.org/2000/svg">
<g filter="url(#filter0_d_730_1265)">
<circle cx="58.5" cy="53.5" r="42.5" fill="#FAFAFA"/>
</g>
<path fill-rule="evenodd" clip-rule="evenodd" d="M58.5 76C62.6111 76 77 64.75 77 51.25C77 37.75 68.7173 31 58.5 31C48.2827 31 40 37.75 40 51.25C40 64.75 54.3889 76 58.5 76ZM58.5001 40.2144C54.0159 40.2144 50.3807 44.004 50.3807 48.6787C50.3807 53.3534 54.0159 57.143 58.5001 57.143C62.9843 57.143 66.6195 53.3534 66.6195 48.6787C66.6195 44.004 62.9843 40.2144 58.5001 40.2144Z" fill="#7CDC50"/>
<defs>
<filter id="filter0_d_730_1265" x="0" y="0" width="117" height="117" filterUnits="userSpaceOnUse" color-interpolation-filters="sRGB">
<feFlood flood-opacity="0" result="BackgroundImageFix"/>
<feColorMatrix in="SourceAlpha" type="matrix" values="0 0 0 0 0 0 0 0 0 0 0 0 0 0 0 0 0 0 127 0" result="hardAlpha"/>
<feOffset dy="5"/>
<feGaussianBlur stdDeviation="8"/>
<feComposite in2="hardAlpha" operator="out"/>
<feColorMatrix type="matrix" values="0 0 0 0 0.579167 0 0 0 0 0.579167 0 0 0 0 0.579167 0 0 0 0.25 0"/>
<feBlend mode="normal" in2="BackgroundImageFix" result="effect1_dropShadow_730_1265"/>
<feBlend mode="normal" in="SourceGraphic" in2="effect1_dropShadow_730_1265" result="shape"/>
</filter>
</defs>
</svg>
