<svg width="80" height="80" viewBox="0 0 117 117" fill="none" xmlns="http://www.w3.org/2000/svg">
<g filter="url(#filter0_d_730_1256)">
<circle cx="58.5" cy="53.5" r="42.5" fill="#FAFAFA"/>
</g>
<path d="M71.4761 62.5064C72.1819 64.1899 72.5452 67.8983 74.3009 69.4492H42.6991C44.4548 67.8983 44.818 64.1899 45.5239 62.5064C46.2297 60.8228 47.2643 59.2931 48.5685 58.0045C49.8727 56.716 51.4211 55.6938 53.1251 54.9965C54.8291 54.2991 56.6555 53.9402 58.5 53.9402C60.3444 53.9402 62.1708 54.2991 63.8749 54.9965C65.5789 55.6938 67.1272 56.716 68.4315 58.0045C69.7357 59.2931 70.7702 60.8228 71.4761 62.5064Z" fill="#FFAA2B"/>
<path fill-rule="evenodd" clip-rule="evenodd" d="M52.6908 53.9739C54.5323 53.2203 56.5063 52.8323 58.5 52.8323C60.4937 52.8323 62.4677 53.2203 64.3092 53.9739C66.1507 54.7275 67.8235 55.8319 69.2321 57.2236C70.6408 58.6154 71.7578 60.2672 72.5198 62.0847C72.7297 62.5854 72.9018 63.203 73.0609 63.8052C73.1003 63.9544 73.1392 64.1041 73.1783 64.2542C73.304 64.7371 73.4308 65.2246 73.5777 65.7151C73.9757 67.0449 74.437 68.079 75.0559 68.6256L77.242 70.5568H39.7579L41.9441 68.6256C42.5629 68.079 43.0243 67.0449 43.4223 65.7151C43.5691 65.2246 43.696 64.7371 43.8217 64.2541C43.8608 64.104 43.8997 63.9544 43.9391 63.8052C44.0982 63.203 44.2702 62.5854 44.4802 62.0847C45.2421 60.2672 46.3592 58.6154 47.7678 57.2236C49.1765 55.8319 50.8493 54.7275 52.6908 53.9739ZM58.5 55.0478C56.8048 55.0478 55.126 55.3777 53.5594 56.0188C51.9929 56.6599 50.5689 57.5998 49.3692 58.7851C48.1694 59.9705 47.2173 61.3781 46.5676 62.9278C46.4246 63.2688 46.2866 63.7461 46.1242 64.3612C46.0889 64.4945 46.0527 64.6337 46.0154 64.7773C45.888 65.2669 45.7474 65.8073 45.588 66.3397C45.397 66.9779 45.1603 67.6764 44.8407 68.3413H72.1593C71.8397 67.6764 71.603 66.9779 71.4119 66.3397C71.2526 65.8073 71.112 65.2669 70.9846 64.7772C70.9472 64.6337 70.911 64.4945 70.8758 64.3612C70.7134 63.7461 70.5754 63.2688 70.4324 62.9278C69.7827 61.3781 68.8306 59.9705 67.6308 58.7851C66.431 57.5998 65.0071 56.6599 63.4405 56.0188C61.874 55.3777 60.1952 55.0478 58.5 55.0478Z" fill="#FFAA2B"/>
<path fill-rule="evenodd" clip-rule="evenodd" d="M34.3472 69.4491C34.3472 68.5926 35.0546 67.8982 35.9273 67.8982H81.0726C81.9453 67.8982 82.6527 68.5926 82.6527 69.4491C82.6527 70.3056 81.9453 71 81.0726 71H35.9273C35.0546 71 34.3472 70.3056 34.3472 69.4491Z" fill="#FFAA2B"/>
<path fill-rule="evenodd" clip-rule="evenodd" d="M58.4999 45.7424C59.3725 45.7424 60.08 46.4368 60.08 47.2933V52.8323C60.08 53.6888 59.3725 54.3832 58.4999 54.3832C57.6272 54.3832 56.9198 53.6888 56.9198 52.8323V47.2933C56.9198 46.4368 57.6272 45.7424 58.4999 45.7424Z" fill="#FFAA2B"/>
<path fill-rule="evenodd" clip-rule="evenodd" d="M54.6627 47.2933C54.6627 46.4368 55.3701 45.7424 56.2428 45.7424H60.7573C61.63 45.7424 62.3374 46.4368 62.3374 47.2933C62.3374 48.1499 61.63 48.8442 60.7573 48.8442H56.2428C55.3701 48.8442 54.6627 48.1499 54.6627 47.2933Z" fill="#FFAA2B"/>
<path fill-rule="evenodd" clip-rule="evenodd" d="M58.6602 38.4311L58.5811 38.4313C57.3345 38.436 56.32 37.448 56.3151 36.2243C56.3103 35.0007 57.3169 34.0049 58.5636 34.0002L58.6602 34L58.7568 34.0002C60.0035 34.0049 61.0102 35.0007 61.0053 36.2243C61.0005 37.448 59.9859 38.436 58.7393 38.4313L58.6602 38.4311ZM44.3635 41.0834C45.2416 41.952 45.236 43.3548 44.3511 44.2167L44.295 44.2715C43.4135 45.1367 41.9843 45.1367 41.1028 44.2715C40.2213 43.4062 40.2213 42.0034 41.1028 41.1382L41.1713 41.0712C42.0562 40.2094 43.4854 40.2148 44.3635 41.0834ZM72.9569 41.0834C73.835 40.2148 75.2642 40.2094 76.1492 41.0712L76.2176 41.1382C77.0992 42.0034 77.0992 43.4062 76.2176 44.2715C75.3361 45.1367 73.9069 45.1367 73.0254 44.2715L72.9694 44.2167C72.0844 43.3548 72.0789 41.952 72.9569 41.0834Z" fill="#FFAA2B"/>
<defs>
<filter id="filter0_d_730_1256" x="0" y="0" width="117" height="117" filterUnits="userSpaceOnUse" color-interpolation-filters="sRGB">
<feFlood flood-opacity="0" result="BackgroundImageFix"/>
<feColorMatrix in="SourceAlpha" type="matrix" values="0 0 0 0 0 0 0 0 0 0 0 0 0 0 0 0 0 0 127 0" result="hardAlpha"/>
<feOffset dy="5"/>
<feGaussianBlur stdDeviation="8"/>
<feComposite in2="hardAlpha" operator="out"/>
<feColorMatrix type="matrix" values="0 0 0 0 0.579167 0 0 0 0 0.579167 0 0 0 0 0.579167 0 0 0 0.25 0"/>
<feBlend mode="normal" in2="BackgroundImageFix" result="effect1_dropShadow_730_1256"/>
<feBlend mode="normal" in="SourceGraphic" in2="effect1_dropShadow_730_1256" result="shape"/>
</filter>
</defs>
</svg>
