<svg width="118" height="117" viewBox="0 0 118 117" fill="none" xmlns="http://www.w3.org/2000/svg">
<g filter="url(#filter0_d_708_2014)">
<circle cx="59" cy="53.5" r="42.5" fill="#FAFAFA"/>
</g>
<path d="M66.5072 35.5833H51.4931C44.9714 35.5833 41.0835 39.4712 41.0835 45.9929V61.0071C41.0835 67.5287 44.9714 71.4167 51.4931 71.4167H66.5072C73.0289 71.4167 76.9168 67.5287 76.9168 61.0071V45.9929C76.9168 39.4712 73.0289 35.5833 66.5072 35.5833ZM55.3631 58.6958L51.3318 62.7271C51.0631 62.9958 50.7227 63.1212 50.3822 63.1212C50.0418 63.1212 49.6835 62.9958 49.4327 62.7271L48.0889 61.3833C47.5514 60.8637 47.5514 60.0037 48.0889 59.4842C48.6085 58.9646 49.4506 58.9646 49.9881 59.4842L50.3822 59.8783L53.4639 56.7967C53.9835 56.2771 54.8256 56.2771 55.3631 56.7967C55.8827 57.3162 55.8827 58.1762 55.3631 58.6958ZM55.3631 46.1542L51.3318 50.1854C51.0631 50.4542 50.7227 50.5796 50.3822 50.5796C50.0418 50.5796 49.6835 50.4542 49.4327 50.1854L48.0889 48.8417C47.5514 48.3221 47.5514 47.4621 48.0889 46.9425C48.6085 46.4229 49.4506 46.4229 49.9881 46.9425L50.3822 47.3367L53.4639 44.255C53.9835 43.7354 54.8256 43.7354 55.3631 44.255C55.8827 44.7746 55.8827 45.6346 55.3631 46.1542ZM68.9618 61.7775H59.5556C58.821 61.7775 58.2118 61.1683 58.2118 60.4337C58.2118 59.6992 58.821 59.09 59.5556 59.09H68.9618C69.7143 59.09 70.3056 59.6992 70.3056 60.4337C70.3056 61.1683 69.7143 61.7775 68.9618 61.7775ZM68.9618 49.2358H59.5556C58.821 49.2358 58.2118 48.6267 58.2118 47.8921C58.2118 47.1575 58.821 46.5483 59.5556 46.5483H68.9618C69.7143 46.5483 70.3056 47.1575 70.3056 47.8921C70.3056 48.6267 69.7143 49.2358 68.9618 49.2358Z" fill="#60A6E8"/>
<defs>
<filter id="filter0_d_708_2014" x="0.5" y="0" width="117" height="117" filterUnits="userSpaceOnUse" color-interpolation-filters="sRGB">
<feFlood flood-opacity="0" result="BackgroundImageFix"/>
<feColorMatrix in="SourceAlpha" type="matrix" values="0 0 0 0 0 0 0 0 0 0 0 0 0 0 0 0 0 0 127 0" result="hardAlpha"/>
<feOffset dy="5"/>
<feGaussianBlur stdDeviation="8"/>
<feComposite in2="hardAlpha" operator="out"/>
<feColorMatrix type="matrix" values="0 0 0 0 0.579167 0 0 0 0 0.579167 0 0 0 0 0.579167 0 0 0 0.25 0"/>
<feBlend mode="normal" in2="BackgroundImageFix" result="effect1_dropShadow_708_2014"/>
<feBlend mode="normal" in="SourceGraphic" in2="effect1_dropShadow_708_2014" result="shape"/>
</filter>
</defs>
</svg>
