<svg width="118" height="117" viewBox="0 0 118 117" fill="none" xmlns="http://www.w3.org/2000/svg">
<g filter="url(#filter0_d_708_2024)">
<circle cx="59" cy="53.5" r="42.5" fill="#FAFAFA"/>
</g>
<path d="M76.6283 51.2425L74.1917 48.4117C73.7258 47.8742 73.3496 46.8708 73.3496 46.1542V43.1083C73.3496 41.2092 71.7908 39.6504 69.8917 39.6504H66.8458C66.1471 39.6504 65.1258 39.2742 64.5883 38.8083L61.7575 36.3717C60.5212 35.3146 58.4967 35.3146 57.2425 36.3717L54.4296 38.8263C53.8921 39.2742 52.8708 39.6504 52.1721 39.6504H49.0725C47.1733 39.6504 45.6146 41.2092 45.6146 43.1083V46.1721C45.6146 46.8708 45.2383 47.8742 44.7904 48.4117L42.3717 51.2604C41.3325 52.4967 41.3325 54.5033 42.3717 55.7396L44.7904 58.5883C45.2383 59.1258 45.6146 60.1292 45.6146 60.8279V63.8917C45.6146 65.7908 47.1733 67.3496 49.0725 67.3496H52.1721C52.8708 67.3496 53.8921 67.7258 54.4296 68.1917L57.2604 70.6283C58.4967 71.6854 60.5212 71.6854 61.7754 70.6283L64.6062 68.1917C65.1437 67.7258 66.1471 67.3496 66.8637 67.3496H69.9096C71.8087 67.3496 73.3675 65.7908 73.3675 63.8917V60.8458C73.3675 60.1471 73.7437 59.1258 74.2096 58.5883L76.6462 55.7575C77.6854 54.5213 77.6854 52.4788 76.6283 51.2425ZM66.9533 50.1138L58.2996 58.7675C58.0487 59.0183 57.7083 59.1617 57.35 59.1617C56.9917 59.1617 56.6512 59.0183 56.4004 58.7675L52.0646 54.4317C51.545 53.9121 51.545 53.0521 52.0646 52.5325C52.5842 52.0129 53.4442 52.0129 53.9637 52.5325L57.35 55.9188L65.0542 48.2146C65.5737 47.695 66.4337 47.695 66.9533 48.2146C67.4729 48.7342 67.4729 49.5942 66.9533 50.1138Z" fill="#7CDC50"/>
<defs>
<filter id="filter0_d_708_2024" x="0.5" y="0" width="117" height="117" filterUnits="userSpaceOnUse" color-interpolation-filters="sRGB">
<feFlood flood-opacity="0" result="BackgroundImageFix"/>
<feColorMatrix in="SourceAlpha" type="matrix" values="0 0 0 0 0 0 0 0 0 0 0 0 0 0 0 0 0 0 127 0" result="hardAlpha"/>
<feOffset dy="5"/>
<feGaussianBlur stdDeviation="8"/>
<feComposite in2="hardAlpha" operator="out"/>
<feColorMatrix type="matrix" values="0 0 0 0 0.579167 0 0 0 0 0.579167 0 0 0 0 0.579167 0 0 0 0.25 0"/>
<feBlend mode="normal" in2="BackgroundImageFix" result="effect1_dropShadow_708_2024"/>
<feBlend mode="normal" in="SourceGraphic" in2="effect1_dropShadow_708_2024" result="shape"/>
</filter>
</defs>
</svg>
