<svg width="208" height="135" viewBox="0 0 208 135" fill="none" xmlns="http://www.w3.org/2000/svg">
<rect x="0.5" y="0.5" width="207" height="134" rx="4.5" fill="#FAFAFA" stroke="#222222"/>
<path d="M108.404 21.5864L108.734 21.8961L133.426 46.1532L130.778 48.8468L127.378 45.5072L127.38 71.1111C127.38 73.102 125.838 74.734 123.883 74.8776L123.602 74.8889H85.8241C83.8332 74.8889 82.2012 73.3476 82.0558 71.3926L82.0463 71.1111L82.0444 45.5091L78.6482 48.8468L76 46.1532L100.665 21.9207C102.767 19.7749 106.158 19.6559 108.404 21.5864ZM103.519 24.4272L103.338 24.5916L85.8222 41.7975L85.8241 71.1111L95.2667 71.1092L95.2686 52.2222C95.2686 50.2314 96.8099 48.5994 98.7649 48.4539L99.0463 48.4445H110.38C112.371 48.4445 114.003 49.9858 114.148 51.9408L114.157 52.2222L114.156 71.1092L123.602 71.1111L123.6 41.7956L106.035 24.5387C105.348 23.8644 104.275 23.8228 103.519 24.4272ZM110.38 52.2222H99.0463L99.0444 71.1092H110.378L110.38 52.2222Z" fill="#435469"/>
<path d="M75.3223 95.7812V97.3242H68.4668V110H66.5918V95.7812H75.3223ZM68.0273 101.572H71.9043C72.946 101.572 73.8249 101.748 74.541 102.1C75.2572 102.445 75.8008 102.93 76.1719 103.555C76.543 104.18 76.7285 104.912 76.7285 105.752C76.7285 106.377 76.6243 106.95 76.416 107.471C76.2077 107.985 75.8984 108.434 75.4883 108.818C75.0781 109.196 74.5736 109.489 73.9746 109.697C73.3757 109.899 72.6855 110 71.9043 110H66.5918V95.7812H68.4766V108.467H71.9043C72.6009 108.467 73.1641 108.34 73.5938 108.086C74.0299 107.826 74.349 107.487 74.5508 107.07C74.7526 106.654 74.8535 106.208 74.8535 105.732C74.8535 105.257 74.7526 104.821 74.5508 104.424C74.349 104.027 74.0299 103.711 73.5938 103.477C73.1641 103.236 72.6009 103.115 71.9043 103.115H68.0273V101.572ZM81.9629 108.906L84.9023 99.4336H86.8359L82.5977 111.631C82.5 111.891 82.3698 112.171 82.207 112.471C82.0508 112.777 81.849 113.066 81.6016 113.34C81.3542 113.613 81.0547 113.835 80.7031 114.004C80.3581 114.18 79.9447 114.268 79.4629 114.268C79.3197 114.268 79.1374 114.248 78.916 114.209C78.6947 114.17 78.5384 114.137 78.4473 114.111L78.4375 112.646C78.4896 112.653 78.571 112.66 78.6816 112.666C78.7988 112.679 78.8802 112.686 78.9258 112.686C79.3359 112.686 79.6842 112.63 79.9707 112.52C80.2572 112.415 80.498 112.236 80.6934 111.982C80.8952 111.735 81.0677 111.393 81.2109 110.957L81.9629 108.906ZM79.8047 99.4336L82.5488 107.637L83.0176 109.541L81.7188 110.205L77.832 99.4336H79.8047ZM89.8242 99.4336H91.6309L91.4746 103.389C91.4355 104.391 91.3216 105.257 91.1328 105.986C90.944 106.715 90.7031 107.337 90.4102 107.852C90.1172 108.359 89.7884 108.786 89.4238 109.131C89.0658 109.476 88.6947 109.766 88.3105 110H87.4121L87.4609 108.525L87.832 108.516C88.0469 108.262 88.2552 108.001 88.457 107.734C88.6589 107.461 88.8444 107.139 89.0137 106.768C89.1829 106.39 89.3229 105.931 89.4336 105.391C89.5508 104.844 89.6257 104.176 89.6582 103.389L89.8242 99.4336ZM90.2734 99.4336H96.6309V110H94.8242V101.104H90.2734V99.4336ZM87.002 108.516H97.9883V113.115H96.1816V110H88.8086V113.115H86.9922L87.002 108.516ZM101.943 107.139L106.816 99.4336H108.633V110H106.816V102.295L101.943 110H100.146V99.4336H101.943V107.139ZM118.701 104.014V105.479H113.115V104.014H118.701ZM113.496 99.4336V110H111.689V99.4336H113.496ZM120.166 99.4336V110H118.35V99.4336H120.166ZM122.598 104.834V104.609C122.598 103.848 122.708 103.141 122.93 102.49C123.151 101.833 123.47 101.263 123.887 100.781C124.303 100.293 124.808 99.9154 125.4 99.6484C125.993 99.375 126.657 99.2383 127.393 99.2383C128.135 99.2383 128.802 99.375 129.395 99.6484C129.993 99.9154 130.501 100.293 130.918 100.781C131.341 101.263 131.663 101.833 131.885 102.49C132.106 103.141 132.217 103.848 132.217 104.609V104.834C132.217 105.596 132.106 106.302 131.885 106.953C131.663 107.604 131.341 108.174 130.918 108.662C130.501 109.144 129.997 109.521 129.404 109.795C128.818 110.062 128.154 110.195 127.412 110.195C126.67 110.195 126.003 110.062 125.41 109.795C124.818 109.521 124.31 109.144 123.887 108.662C123.47 108.174 123.151 107.604 122.93 106.953C122.708 106.302 122.598 105.596 122.598 104.834ZM124.404 104.609V104.834C124.404 105.361 124.466 105.859 124.59 106.328C124.714 106.79 124.899 107.201 125.146 107.559C125.4 107.917 125.716 108.2 126.094 108.408C126.471 108.61 126.911 108.711 127.412 108.711C127.907 108.711 128.34 108.61 128.711 108.408C129.089 108.2 129.401 107.917 129.648 107.559C129.896 107.201 130.081 106.79 130.205 106.328C130.335 105.859 130.4 105.361 130.4 104.834V104.609C130.4 104.089 130.335 103.597 130.205 103.135C130.081 102.666 129.893 102.253 129.639 101.895C129.391 101.53 129.079 101.243 128.701 101.035C128.33 100.827 127.894 100.723 127.393 100.723C126.898 100.723 126.462 100.827 126.084 101.035C125.713 101.243 125.4 101.53 125.146 101.895C124.899 102.253 124.714 102.666 124.59 103.135C124.466 103.597 124.404 104.089 124.404 104.609ZM136.445 99.4336V110H134.639V99.4336H136.445ZM143.379 99.4336L138.369 105.488H135.84L135.566 103.906H137.637L141.182 99.4336H143.379ZM141.436 110L137.549 105.215L138.711 103.906L143.73 110H141.436Z" fill="#222222"/>
</svg>
