<svg width="208" height="135" viewBox="0 0 208 135" fill="none" xmlns="http://www.w3.org/2000/svg">
<rect x="0.5" y="0.5" width="207" height="134" rx="4.5" fill="#FAFAFA" stroke="#222222"/>
<path d="M127.222 21.0557C129.213 21.0557 130.845 22.597 130.991 24.552L131 24.8334V70.1668C131 72.1577 129.459 73.7897 127.504 73.9332L127.222 73.9446H81.8891C79.8982 73.9446 78.2662 72.4032 78.1208 70.4482L78.1113 70.1668V24.8334C78.1113 22.8426 79.6527 21.2106 81.6077 21.0651L81.8891 21.0557H127.222ZM104.556 30.3396L98.7267 36.1668H81.8891V70.1668H97.0002V60.7223C97.0002 58.7314 98.5415 57.0994 100.497 56.954L100.778 56.9446H108.334C110.324 56.9446 111.956 58.4859 112.102 60.4409L112.111 60.7223V70.1668H127.222V36.1668H110.385L104.556 30.3396ZM108.334 60.7223H100.778V70.1668H108.334V60.7223ZM119.667 56.9446C120.71 56.9446 121.556 57.7908 121.556 58.8334C121.556 59.8761 120.71 60.7223 119.667 60.7223C118.624 60.7223 117.778 59.8761 117.778 58.8334C117.778 57.7908 118.624 56.9446 119.667 56.9446ZM89.4447 56.9446C90.4873 56.9446 91.3336 57.7908 91.3336 58.8334C91.3336 59.8761 90.4873 60.7223 89.4447 60.7223C88.402 60.7223 87.5558 59.8761 87.5558 58.8334C87.5558 57.7908 88.402 56.9446 89.4447 56.9446ZM119.667 49.389C120.71 49.389 121.556 50.2352 121.556 51.2779C121.556 52.3206 120.71 53.1668 119.667 53.1668C118.624 53.1668 117.778 52.3206 117.778 51.2779C117.778 50.2352 118.624 49.389 119.667 49.389ZM89.4447 49.389C90.4873 49.389 91.3336 50.2352 91.3336 51.2779C91.3336 52.3206 90.4873 53.1668 89.4447 53.1668C88.402 53.1668 87.5558 52.3206 87.5558 51.2779C87.5558 50.2352 88.402 49.389 89.4447 49.389ZM119.667 41.8334C120.71 41.8334 121.556 42.6797 121.556 43.7223C121.556 44.765 120.71 45.6112 119.667 45.6112C118.624 45.6112 117.778 44.765 117.778 43.7223C117.778 42.6797 118.624 41.8334 119.667 41.8334ZM104.556 41.8334C105.598 41.8334 106.445 42.6797 106.445 43.7223C106.445 44.765 105.598 45.6112 104.556 45.6112C103.513 45.6112 102.667 44.765 102.667 43.7223C102.667 42.6797 103.513 41.8334 104.556 41.8334ZM89.4447 41.8334C90.4873 41.8334 91.3336 42.6797 91.3336 43.7223C91.3336 44.765 90.4873 45.6112 89.4447 45.6112C88.402 45.6112 87.5558 44.765 87.5558 43.7223C87.5558 42.6797 88.402 41.8334 89.4447 41.8334ZM127.222 32.389V24.8334H81.8891V32.389H97.1589L101.885 27.6668C103.283 26.269 105.502 26.1953 106.987 27.4458L107.227 27.6668L111.951 32.389H127.222Z" fill="#435469"/>
<path d="M83.4688 95.7812V97.3242H76.6133V110H74.7383V95.7812H83.4688ZM83.1953 104.834V104.609C83.1953 103.848 83.306 103.141 83.5273 102.49C83.7487 101.833 84.0677 101.263 84.4844 100.781C84.901 100.293 85.4056 99.9154 85.998 99.6484C86.5905 99.375 87.2546 99.2383 87.9902 99.2383C88.7324 99.2383 89.3997 99.375 89.9922 99.6484C90.5911 99.9154 91.099 100.293 91.5156 100.781C91.9388 101.263 92.2611 101.833 92.4824 102.49C92.7038 103.141 92.8145 103.848 92.8145 104.609V104.834C92.8145 105.596 92.7038 106.302 92.4824 106.953C92.2611 107.604 91.9388 108.174 91.5156 108.662C91.099 109.144 90.5944 109.521 90.002 109.795C89.416 110.062 88.752 110.195 88.0098 110.195C87.2676 110.195 86.6003 110.062 86.0078 109.795C85.4154 109.521 84.9076 109.144 84.4844 108.662C84.0677 108.174 83.7487 107.604 83.5273 106.953C83.306 106.302 83.1953 105.596 83.1953 104.834ZM85.002 104.609V104.834C85.002 105.361 85.0638 105.859 85.1875 106.328C85.3112 106.79 85.4967 107.201 85.7441 107.559C85.998 107.917 86.3138 108.2 86.6914 108.408C87.069 108.61 87.5085 108.711 88.0098 108.711C88.5046 108.711 88.9375 108.61 89.3086 108.408C89.6862 108.2 89.9987 107.917 90.2461 107.559C90.4935 107.201 90.679 106.79 90.8027 106.328C90.9329 105.859 90.998 105.361 90.998 104.834V104.609C90.998 104.089 90.9329 103.597 90.8027 103.135C90.679 102.666 90.4902 102.253 90.2363 101.895C89.9889 101.53 89.6764 101.243 89.2988 101.035C88.9277 100.827 88.4915 100.723 87.9902 100.723C87.4954 100.723 87.0592 100.827 86.6816 101.035C86.3105 101.243 85.998 101.53 85.7441 101.895C85.4967 102.253 85.3112 102.666 85.1875 103.135C85.0638 103.597 85.002 104.089 85.002 104.609ZM99.1719 99.4336V110H97.3555V99.4336H99.1719ZM102.717 99.4336V100.898H93.8789V99.4336H102.717ZM108.098 110.195C107.362 110.195 106.695 110.072 106.096 109.824C105.503 109.57 104.992 109.215 104.562 108.76C104.139 108.304 103.814 107.764 103.586 107.139C103.358 106.514 103.244 105.83 103.244 105.088V104.678C103.244 103.818 103.371 103.053 103.625 102.383C103.879 101.706 104.224 101.133 104.66 100.664C105.096 100.195 105.591 99.8405 106.145 99.5996C106.698 99.3587 107.271 99.2383 107.863 99.2383C108.618 99.2383 109.27 99.3685 109.816 99.6289C110.37 99.8893 110.822 100.254 111.174 100.723C111.525 101.185 111.786 101.732 111.955 102.363C112.124 102.988 112.209 103.672 112.209 104.414V105.225H104.318V103.75H110.402V103.613C110.376 103.145 110.279 102.689 110.109 102.246C109.947 101.803 109.686 101.439 109.328 101.152C108.97 100.866 108.482 100.723 107.863 100.723C107.453 100.723 107.076 100.811 106.73 100.986C106.385 101.156 106.089 101.41 105.842 101.748C105.594 102.087 105.402 102.5 105.266 102.988C105.129 103.477 105.061 104.04 105.061 104.678V105.088C105.061 105.589 105.129 106.061 105.266 106.504C105.409 106.94 105.614 107.324 105.881 107.656C106.154 107.988 106.483 108.249 106.867 108.438C107.258 108.626 107.701 108.721 108.195 108.721C108.833 108.721 109.374 108.59 109.816 108.33C110.259 108.07 110.646 107.721 110.979 107.285L112.072 108.154C111.844 108.499 111.555 108.828 111.203 109.141C110.852 109.453 110.419 109.707 109.904 109.902C109.396 110.098 108.794 110.195 108.098 110.195ZM121.379 99.4336V100.928H116.271V99.4336H121.379ZM122.971 99.4336V110H121.164V99.4336H122.971ZM115.832 99.4336H117.648L117.375 104.531C117.329 105.319 117.255 106.016 117.15 106.621C117.053 107.22 116.916 107.734 116.74 108.164C116.571 108.594 116.356 108.945 116.096 109.219C115.842 109.486 115.536 109.684 115.178 109.814C114.82 109.938 114.406 110 113.938 110H113.371V108.408L113.762 108.379C114.042 108.359 114.279 108.294 114.475 108.184C114.676 108.073 114.846 107.91 114.982 107.695C115.119 107.474 115.23 107.191 115.314 106.846C115.406 106.501 115.474 106.09 115.52 105.615C115.572 105.14 115.611 104.587 115.637 103.955L115.832 99.4336ZM127.365 103.066H130.539C131.392 103.066 132.111 103.216 132.697 103.516C133.283 103.809 133.726 104.215 134.025 104.736C134.331 105.251 134.484 105.837 134.484 106.494C134.484 106.982 134.4 107.441 134.23 107.871C134.061 108.294 133.807 108.665 133.469 108.984C133.137 109.303 132.723 109.554 132.229 109.736C131.74 109.912 131.177 110 130.539 110H126.047V99.4336H127.854V108.516H130.539C131.06 108.516 131.477 108.421 131.789 108.232C132.102 108.044 132.326 107.799 132.463 107.5C132.6 107.201 132.668 106.888 132.668 106.562C132.668 106.243 132.6 105.931 132.463 105.625C132.326 105.319 132.102 105.065 131.789 104.863C131.477 104.655 131.06 104.551 130.539 104.551H127.365V103.066Z" fill="#222222"/>
</svg>
