<svg width="208" height="135" viewBox="0 0 208 135" fill="none" xmlns="http://www.w3.org/2000/svg">
<rect x="0.5" y="0.5" width="207" height="134" rx="4.5" fill="#FAFAFA" stroke="#222222"/>
<path d="M136.408 66.9093H95.8994C95.4526 68.6622 94.4422 70.215 93.0312 71.3244C91.6203 72.4338 89.8873 73.0344 88.102 73.0344C86.3167 73.0344 84.5837 72.4338 83.1728 71.3244C81.7618 70.215 80.7514 68.6622 80.3046 66.9093H76.0255C75.0091 66.9093 74.0309 66.5211 73.2861 65.8183C72.5414 65.1175 72.0865 64.1572 72.0101 63.1296L72 62.8231V32.6059C72 26.8853 76.4039 22.2066 81.9349 21.9716L82.3737 21.9614H117.983C123.573 21.9614 128.117 26.493 128.349 32.1564L128.357 32.6059V62.8231H132.383V58.7369H136.408V66.9093ZM88.102 60.78C87.0352 60.78 86.0108 61.2111 85.256 61.9773C84.5012 62.7434 84.0765 63.7834 84.0765 64.8662C84.0765 65.949 84.5012 66.989 85.256 67.7551C86.0108 68.5213 87.0352 68.9524 88.102 68.9524C89.1688 68.9524 90.1933 68.5213 90.948 67.7551C91.7028 66.989 92.1275 65.949 92.1275 64.8662C92.1275 63.7834 91.7028 62.7434 90.948 61.9773C90.1933 61.2111 89.1688 60.78 88.102 60.78ZM117.983 26.0476H82.3737C78.9943 26.0476 76.2227 28.7792 76.0356 32.2341L76.0255 32.6079V62.8231H80.3046C80.7514 61.0701 81.7618 59.5174 83.1728 58.408C84.5837 57.2986 86.3167 56.6979 88.102 56.6979C89.8873 56.6979 91.6203 57.2986 93.0312 58.408C94.4422 59.5174 95.4526 61.0701 95.8994 62.8231H100.179V36.6042C100.179 34.2649 101.966 32.3505 104.228 32.1871L104.54 32.1768H113.932C116.236 32.1768 118.122 33.9911 118.283 36.2875L118.293 36.6042V62.8231H124.332V32.6059C124.332 29.104 121.675 26.2519 118.344 26.0578L117.983 26.0476ZM113.932 36.263H104.54C104.47 36.263 104.401 36.2855 104.343 36.3263C104.285 36.3693 104.242 36.4285 104.22 36.4959L104.204 36.6042V62.8231H114.268V36.6042C114.268 36.5327 114.246 36.4632 114.205 36.404C114.163 36.3468 114.105 36.3018 114.038 36.2794L113.932 36.263ZM92.1275 32.1768C93.1439 32.1768 94.1221 32.565 94.8669 33.2658C95.6096 33.9686 96.0665 34.9289 96.1429 35.9566L96.153 36.263V44.4354C96.153 45.4671 95.7706 46.46 95.0802 47.216C94.3878 47.9699 93.4418 48.4337 92.4294 48.5113L92.1275 48.5215H84.0765C83.0601 48.5215 82.0819 48.1333 81.3371 47.4326C80.5924 46.7297 80.1376 45.7695 80.0611 44.7418L80.051 44.4354V36.263C80.051 35.2313 80.4334 34.2383 81.1238 33.4824C81.8162 32.7264 82.7622 32.2647 83.7746 32.1871L84.0765 32.1768H92.1275ZM92.1275 36.263H84.0765V44.4354H92.1275V36.263Z" fill="#435469"/>
<path d="M85.6719 95.7812V110H83.7871V95.7812H85.6719ZM95.9941 104.014V105.479H90.4082V104.014H95.9941ZM90.7891 99.4336V110H88.9824V99.4336H90.7891ZM97.459 99.4336V110H95.6426V99.4336H97.459ZM100.525 99.4336H102.332V108.516H106.199V99.4336H108.016V108.516H111.873V99.4336H113.68V110H100.525V99.4336ZM120.945 110.195C120.21 110.195 119.542 110.072 118.943 109.824C118.351 109.57 117.84 109.215 117.41 108.76C116.987 108.304 116.661 107.764 116.434 107.139C116.206 106.514 116.092 105.83 116.092 105.088V104.678C116.092 103.818 116.219 103.053 116.473 102.383C116.727 101.706 117.072 101.133 117.508 100.664C117.944 100.195 118.439 99.8405 118.992 99.5996C119.546 99.3587 120.118 99.2383 120.711 99.2383C121.466 99.2383 122.117 99.3685 122.664 99.6289C123.217 99.8893 123.67 100.254 124.021 100.723C124.373 101.185 124.633 101.732 124.803 102.363C124.972 102.988 125.057 103.672 125.057 104.414V105.225H117.166V103.75H123.25V103.613C123.224 103.145 123.126 102.689 122.957 102.246C122.794 101.803 122.534 101.439 122.176 101.152C121.818 100.866 121.329 100.723 120.711 100.723C120.301 100.723 119.923 100.811 119.578 100.986C119.233 101.156 118.937 101.41 118.689 101.748C118.442 102.087 118.25 102.5 118.113 102.988C117.977 103.477 117.908 104.04 117.908 104.678V105.088C117.908 105.589 117.977 106.061 118.113 106.504C118.257 106.94 118.462 107.324 118.729 107.656C119.002 107.988 119.331 108.249 119.715 108.438C120.105 108.626 120.548 108.721 121.043 108.721C121.681 108.721 122.221 108.59 122.664 108.33C123.107 108.07 123.494 107.721 123.826 107.285L124.92 108.154C124.692 108.499 124.402 108.828 124.051 109.141C123.699 109.453 123.266 109.707 122.752 109.902C122.244 110.098 121.642 110.195 120.945 110.195Z" fill="#222222"/>
</svg>
